<?xml version="1.0" encoding="utf-8"?>
<!-- Generator: Adobe Illustrator 23.1.0, SVG Export Plug-In . SVG Version: 6.00 Build 0)  -->
<svg version="1.1" xmlns="http://www.w3.org/2000/svg" xmlns:xlink="http://www.w3.org/1999/xlink" x="0px" y="0px"
	 viewBox="0 0 500 500" style="enable-background:new 0 0 500 500;" xml:space="preserve">
<style type="text/css">
	.st0{fill:#A3E2DC;}
	.st1{opacity:0.8;}
	.st2{fill:#002039;}
	.st3{fill:#FFFFFF;}
	.st4{opacity:0.3;fill:#D2F3FB;}
	.st5{fill:#00D4C9;}
	.st6{fill:#E05731;}
	.st7{fill:#E6E6E6;}
	.st8{opacity:0.8;fill:#FFFFFF;}
	.st9{opacity:0.5;fill:#D2F3FB;}
	.st10{opacity:0.3;}
	.st11{fill:#D2F3FB;}
	.st12{fill:#805DD8;}
	.st13{fill:#004D6C;}
	.st14{fill:#00AF9F;}
	.st15{fill:#B1E9F9;}
	.st16{fill:none;stroke:#B1E9F9;stroke-width:0.7045;stroke-miterlimit:10;}
	.st17{fill:none;stroke:#B1E9F9;stroke-width:0.5314;stroke-miterlimit:10;}
	.st18{fill:#FFAC92;}
</style>
<g id="BACKGROUND">
	<g>
		<path class="st0" d="M155.25,140.26c6.19,7.49,12.06,16.08,12.73,26.08c1.09,16.33-19.89,22.18-32.55,24.03
			c-14.9,2.18-28.77,0.46-43.61,0.65c-13.63,0.17-28.01,7.46-37.05,17.69c-9.66,10.93-17.35,25.92-13.97,40.86
			c2.92,12.89,14.88,18.16,26.37,21.45c25.04,7.16,64.22-11.75,78.27,18.81c10.02,21.79-10.12,29.39-26.77,34.87
			c-24.33,8.01-45.14,27.39-47.52,54.26c-2.5,28.12,16.09,48.52,44.09,49.94c10.44,0.53,23.48-1.59,31.9-7.94
			c13.44-10.14,22.5-24.22,40.4-27.42c17.46-3.12,26.71,10.23,36.92,22.05c8.75,10.13,17.32,14.86,30.58,17.58
			c17.84,3.66,35.96,7.79,53.6,1.1c15.48-5.88,23.64-15.98,24.97-32.32c0.98-12.04,1.62-24.51,13.87-30.96
			c12.35-6.5,21.8-0.47,32.43,5.68c14.61,8.46,36.56,11.15,51.61,2.42c21.45-12.44,34.81-43.85,25.46-67.15
			c-8.59-21.41-28.06-42.68-51.37-47.97c-17.33-3.93-34.03,2.84-44.26-15.49c-8.51-15.25,0.3-27.35,15.19-32.64
			c15.95-5.67,35.3-9.5,44.21-25.9c6.16-11.34,5.2-24.47-5.8-32.25c-8.56-6.06-21.76-5.6-31.57-3.87
			c-21.12,3.73-61.26,25.13-73.06-5.75c-5.14-13.46,4.35-28.37,0.6-42.83c-4.06-15.66-15.16-30.9-30.12-37.76
			c-15.6-7.15-33.89-6.45-49.95-1.55c-13.17,4.02-24.51,12.85-38.03,15.82c-14.51,3.19-28.89-0.9-40.33,11.41
			c-7.62,8.2-14.75,21.98-8.21,32.75c3.02,4.97,6.82,9.41,10.54,13.85"/>
	</g>
</g>
<g id="OBJECTS">
	<g class="st1">
		<path class="st2" d="M227.6,168.82L227.6,168.82c-0.86,0-1.55-0.7-1.55-1.55v-7.9h3.11v7.9
			C229.15,168.13,228.45,168.82,227.6,168.82z"/>
		<g>
			<path class="st3" d="M227.6,99.74c-4.02,0-7.87,0.75-11.42,2.1l-8.92-8.92l0,0l0.11-0.11c0.95-0.95,0.95-2.49,0-3.44
				s-2.49-0.95-3.44,0l-16.29,16.29c-0.95,0.95-0.95,2.49,0,3.44c0.95,0.95,2.49,0.95,3.44,0l0.11-0.11l7.97,7.97
				c-2.33,4.45-3.66,9.5-3.66,14.87c0,17.72,14.36,32.08,32.08,32.08c17.72,0,32.08-14.36,32.08-32.08S245.31,99.74,227.6,99.74z"/>
			<path class="st4" d="M258.07,131.81c0,16.83-13.65,30.48-30.48,30.48c-14.43,0-26.52-10.04-29.66-23.52
				c-0.53-2.23-0.81-4.56-0.81-6.96c0-16.83,13.64-30.47,30.47-30.47c14.06,0,25.9,9.52,29.41,22.48
				C257.7,126.36,258.07,129.04,258.07,131.81z"/>
			<g>
				<path class="st5" d="M258.07,131.81c0,16.83-13.65,30.48-30.48,30.48c-14.43,0-26.52-10.04-29.66-23.52
					c3.57-0.44,7.3-2.87,9.91-4.54c2.85-1.82,4.84-3.65,8.49-3.34c2.47,0.22,4.14,1.74,6.5,2.27c7.44,1.66,11.31-2.39,16.26-6.93
					c4.19-3.85,8.3-4.42,13.5-3.17c1.5,0.37,2.94,0.63,4.41,0.76C257.7,126.36,258.07,129.04,258.07,131.81z"/>
			</g>
		</g>
		<path class="st5" d="M212.36,126.27c0,2.06-1.67,3.74-3.74,3.74c-2.06,0-3.74-1.67-3.74-3.74c0-2.06,1.67-3.74,3.74-3.74
			C210.68,122.54,212.36,124.21,212.36,126.27z"/>
		<path class="st5" d="M228.75,113.92c0,2.06-1.67,3.74-3.74,3.74s-3.74-1.67-3.74-3.74c0-2.06,1.67-3.74,3.74-3.74
			S228.75,111.86,228.75,113.92z"/>
		<path class="st5" d="M225.36,126.27c0,1.14-0.92,2.06-2.06,2.06s-2.06-0.92-2.06-2.06c0-1.14,0.92-2.06,2.06-2.06
			S225.36,125.14,225.36,126.27z"/>
		<path class="st5" d="M238.8,111.21c0,1.14-0.92,2.06-2.06,2.06c-1.14,0-2.06-0.92-2.06-2.06c0-1.14,0.92-2.06,2.06-2.06
			C237.87,109.15,238.8,110.08,238.8,111.21z"/>
		<circle class="st5" cx="220.66" cy="141.33" r="2.06"/>
		<circle class="st5" cx="246.8" cy="131.26" r="2.06"/>
		<circle class="st5" cx="231.21" cy="154.77" r="2.06"/>
		<path class="st5" d="M242.71,145.01c1.37,1.37,1.37,3.58,0,4.95c-1.37,1.37-3.58,1.37-4.95,0c-1.37-1.37-1.37-3.58,0-4.95
			C239.13,143.64,241.35,143.64,242.71,145.01z"/>
		<path class="st5" d="M214.6,145.01c1.37,1.37,1.37,3.58,0,4.95c-1.37,1.37-3.58,1.37-4.95,0c-1.37-1.37-1.37-3.58,0-4.95
			C211.01,143.64,213.23,143.64,214.6,145.01z"/>
		<path class="st5" d="M254.47,136.41c1.37,1.37,1.37,3.58,0,4.95c-1.37,1.37-3.58,1.37-4.95,0c-1.37-1.37-1.37-3.58,0-4.95
			C250.89,135.04,253.1,135.04,254.47,136.41z"/>
		<g>
			<g>
				<path class="st2" d="M262.07,151.19c1.7-0.92,3.36-1.7,3.48-3.91c0.1-2.02-1.27-3.5-2.96-4.37c-4.36-2.27-9.34,1.06-9.2,5.96
					c0.11,3.79,3.51,8.09,5.21,11.39c1.56,3.03,3.09,6.06,4.61,9.11c0.86,1.73,3.44,0.21,2.59-1.51c-1.58-3.17-3.17-6.33-4.79-9.48
					c-0.97-1.89-1.98-3.77-2.98-5.64c-0.75-1.39-2.26-3.42-1.53-5.02c0.62-1.35,3.57-3.59,5.04-2c1.84,2,0.11,2.3-0.96,2.89
					C258.86,149.53,260.37,152.11,262.07,151.19L262.07,151.19z"/>
			</g>
			<g>
				<path class="st2" d="M194.16,148.61c-1.11-0.6-1.41-0.31-1.18-1.79c0.39-2.45,2.42-1.54,3.73-0.41
					c2.09,1.81,1.73,3.13,0.55,5.37c-0.13,0.25-0.29,0.48-0.43,0.73c-1.05,1.95-2.1,3.9-3.11,5.87c-1.62,3.15-3.22,6.31-4.79,9.48
					c-0.86,1.72,1.73,3.24,2.59,1.51c1.46-2.92,2.93-5.84,4.42-8.74c1.74-3.4,5.28-7.87,5.4-11.76c0.14-4.63-4.43-8.07-8.75-6.18
					c-1.78,0.78-3.28,2.16-3.38,4.18c-0.12,2.41,1.6,3.32,3.45,4.32C194.34,152.11,195.85,149.53,194.16,148.61L194.16,148.61z"/>
			</g>
			<g>
				<path class="st2" d="M258.76,149.77h-62.33c-0.55,0-1-0.73-1-1.64c0-0.91,0.45-1.64,1-1.64h62.33c0.55,0,1,0.73,1,1.64
					C259.76,149.03,259.31,149.77,258.76,149.77z"/>
			</g>
		</g>
	</g>
	<g>
		<g>
			<path class="st3" d="M121.68,234.75c0.33,9.11-6.96,16.6-16,16.6H87.35c-3.93,0-7.52-1.42-10.31-3.77
				c-3.61-3.04-5.86-7.66-5.69-12.79c0.11-3.26,1.22-6.25,3.03-8.72c0.33-0.45,0.8-0.89,1.37-1.31c2.21-1.62,4.2-3.47,5.96-5.51
				c6.22-7.18,9.57-16.61,9.57-26.3v-11.28h10.48v0.55l0.01,12.62c0.01,11.09,5.27,21.28,13.76,28.32c0.51,0.43,1.03,0.85,1.57,1.25
				c0.38,0.29,0.71,0.58,0.96,0.89C120.21,227.89,121.55,231.15,121.68,234.75z"/>
			<path class="st3" d="M91.31,181.66h10.42c1.57,0,2.84-1.27,2.84-2.84c0-1.57-1.27-2.84-2.84-2.84H91.31
				c-1.57,0-2.84,1.27-2.84,2.84C88.47,180.39,89.74,181.66,91.31,181.66z"/>
		</g>
		<path class="st6" d="M96.91,161.01L96.91,161.01c-2.66,0-4.82,2.16-4.82,4.82v10.15h9.64v-10.15
			C101.73,163.17,99.58,161.01,96.91,161.01z"/>
		<g>
			<path class="st6" d="M119.88,234.78c0.31,8.46-6.46,15.41-14.86,15.41H88.01c-8.38,0-15.13-6.94-14.86-15.38
				c0.1-3.03,1.13-5.8,2.81-8.1c0.31-0.42,0.74-0.83,1.27-1.22c1.23-0.9,2.39-1.89,3.48-2.94c2.19-2.13,5.68-2.3,7.87-0.17
				c0.02,0.02,0.04,0.04,0.06,0.06c2.55,2.54,4.12,4.26,8.12,3.65c2.76-0.43,5.37-1.96,8.04-2.73c2.93-0.86,5.69-0.98,8.08-0.01
				c0.73,0.3,1.39,0.75,2,1.24c0.24,0.19,0.49,0.38,0.74,0.57c0.35,0.27,0.66,0.54,0.89,0.83
				C118.52,228.41,119.76,231.44,119.88,234.78z"/>
		</g>
		<g>
			<path class="st7" d="M121.68,234.75c0.33,9.11-6.96,16.6-16,16.6H87.35c-3.93,0-7.52-1.42-10.31-3.77
				c-0.78-2.23-0.93-4.7-0.19-7.24c1.58-5.46,5.97-10.19,9.07-14.84c4.83-7.26,8.6-14.2,9.77-22.69c0.85-6.24,0.09-21.14,0.09-21.14
				l5.95,0l0.04,13.17c0.01,11.09,5.27,21.28,13.76,28.32c0.51,0.43,1.03,0.85,1.57,1.25c0.38,0.29,0.71,0.58,0.96,0.89
				C120.21,227.89,121.55,231.15,121.68,234.75z"/>
		</g>
		<path class="st2" d="M114.89,249.5H78.32c-0.69,0-1.25,0.56-1.25,1.25v0.31c0,0.69,0.56,1.25,1.25,1.25h2.01l-2.61,4.53
			c-0.43,0.74-0.17,1.69,0.57,2.12c0.74,0.43,1.69,0.17,2.12-0.57l3.51-6.08h11.27v5.73c0,0.86,0.7,1.55,1.55,1.55
			c0.86,0,1.55-0.7,1.55-1.55v-5.73h10.81l3.51,6.08c0.43,0.74,1.38,1,2.12,0.57c0.74-0.43,1-1.38,0.57-2.12l-2.61-4.53h2.19
			c0.69,0,1.25-0.56,1.25-1.25v-0.31C116.14,250.06,115.58,249.5,114.89,249.5z"/>
	</g>
	<g>
		<g>
			<g>
				<path class="st8" d="M292.73,167.11c0,0.94-0.76,1.7-1.7,1.7v47.58c0,2.66-2.16,4.81-4.82,4.81c-2.65,0-4.81-2.15-4.81-4.81
					v-47.58c-0.94,0-1.7-0.76-1.7-1.7s0.76-1.7,1.7-1.7h9.63C291.97,165.41,292.73,166.17,292.73,167.11z"/>
				<g>
					<path class="st6" d="M291.03,206.64v9.75c0,2.66-2.16,4.81-4.82,4.81c-2.65,0-4.81-2.15-4.81-4.81v-10.03
						c0.46-0.58,0.92-1.16,2-1.21c1.91-0.09,2.31,2.17,4.11,2.44c0.01,0.01,0.03,0.01,0.04,0.01c0.55,0.08,1.08-0.06,1.59-0.26
						C289.78,207.1,290.4,206.77,291.03,206.64z"/>
				</g>
				<path class="st9" d="M288.32,214.38L288.32,214.38c-0.45,0-0.81-0.36-0.81-0.81V171.7c0-0.45,0.36-0.81,0.81-0.81l0,0
					c0.45,0,0.81,0.36,0.81,0.81v41.88C289.13,214.02,288.77,214.38,288.32,214.38z"/>
			</g>
			<g class="st10">
				<path class="st11" d="M290.67,175.16c0.12-0.18,0.24-0.39,0.36-0.63v41.86c0,2.66-2.16,4.81-4.82,4.81
					c-2.65,0-4.81-2.15-4.81-4.81v-31.34c0.78-0.78,1.56-1.52,2.2-2.2c1.28-1.35,2.64-2.57,3.91-3.87c0.56-0.57,1.11-1.15,1.63-1.77
					C289.68,176.57,290.2,175.89,290.67,175.16z"/>
			</g>
		</g>
		<g>
			<g>
				<path class="st8" d="M306.89,167.11c0,0.94-0.76,1.7-1.7,1.7v47.58c0,2.66-2.16,4.81-4.82,4.81c-2.65,0-4.81-2.15-4.81-4.81
					v-47.58c-0.94,0-1.7-0.76-1.7-1.7s0.76-1.7,1.7-1.7h9.63C306.13,165.41,306.89,166.17,306.89,167.11z"/>
				<g>
					<path class="st12" d="M305.19,193.75v22.64c0,2.66-2.16,4.81-4.82,4.81c-2.65,0-4.81-2.15-4.81-4.81v-22.3
						c0.29-0.09,0.59-0.14,0.91-0.13c0.77,0.03,1.39,0.47,2.14,0.58c1.27,0.19,2.5-0.43,3.77-0.78c0.44-0.13,0.89-0.23,1.35-0.24
						h0.28C304.52,193.53,304.9,193.61,305.19,193.75z"/>
				</g>
				<path class="st9" d="M303.2,213.74L303.2,213.74c-0.45,0-0.81-0.36-0.81-0.81v-41.88c0-0.45,0.36-0.81,0.81-0.81l0,0
					c0.45,0,0.81,0.36,0.81,0.81v41.88C304.01,213.37,303.65,213.74,303.2,213.74z"/>
			</g>
			<g class="st10">
				<path class="st11" d="M304.01,171.18c0.4-0.3,0.8-0.6,1.18-0.93v46.14c0,2.66-2.16,4.81-4.82,4.81c-2.65,0-4.81-2.15-4.81-4.81
					v-39.88c2.17-1.47,4.58-2.75,6.82-4.21C302.93,171.95,303.48,171.57,304.01,171.18z"/>
			</g>
		</g>
		<g>
			<g>
				<path class="st8" d="M321.05,167.11c0,0.94-0.76,1.7-1.7,1.7v47.58c0,2.66-2.16,4.81-4.82,4.81c-2.65,0-4.81-2.15-4.81-4.81
					v-47.58c-0.94,0-1.7-0.76-1.7-1.7s0.76-1.7,1.7-1.7h9.63C320.29,165.41,321.05,166.17,321.05,167.11z"/>
				<g>
					<path class="st13" d="M319.35,191.99v24.4c0,2.66-2.16,4.81-4.82,4.81c-2.65,0-4.81-2.15-4.81-4.81v-21.56
						c0.09,0,0.2,0.01,0.3,0.03c1.55,0.3,2.26,2.99,4.28,1.89c0.92-0.5,1.39-1.57,1.96-2.57c0.42-0.73,0.89-1.43,1.62-1.83
						c0.16-0.1,0.33-0.18,0.52-0.24C318.73,192.01,319.05,191.97,319.35,191.99z"/>
				</g>
				<path class="st9" d="M317.07,213.74L317.07,213.74c-0.45,0-0.81-0.36-0.81-0.81v-41.88c0-0.45,0.36-0.81,0.81-0.81l0,0
					c0.45,0,0.81,0.36,0.81,0.81v41.88C317.88,213.37,317.52,213.74,317.07,213.74z"/>
			</g>
			<g class="st10">
				<path class="st11" d="M319.35,170.12v46.27c0,2.66-2.16,4.81-4.82,4.81c-2.65,0-4.81-2.15-4.81-4.81v-39.72
					c1.47-0.83,2.88-1.92,3.93-2.6c0.83-0.54,1.72-1.11,2.61-1.72c0.54-0.36,1.08-0.73,1.62-1.13
					C318.38,170.87,318.87,170.5,319.35,170.12z"/>
			</g>
		</g>
		<path class="st14" d="M323.12,186.51v0.51h-44.36v-0.51c0-0.78-0.63-1.41-1.41-1.41l0,0c-0.78,0-1.41,0.63-1.41,1.41v45.25h2.82
			v-6.47h44.36v6.47h2.82v-45.25c0-0.78-0.63-1.41-1.41-1.41l0,0C323.76,185.1,323.12,185.73,323.12,186.51z M278.77,223.3v-34.29
			h44.36v34.29H278.77z"/>
	</g>
	<g>
		<path class="st14" d="M290.48,380.67c0,17.4-14.11,31.5-31.5,31.5c-15.51,0-28.41-11.21-31.02-25.98
			c-0.31-1.79-0.48-3.64-0.48-5.52c0-17.39,14.11-31.49,31.5-31.49c9.12,0,17.35,3.88,23.09,10.08
			C287.29,364.88,290.48,372.4,290.48,380.67z"/>
		<path class="st14" d="M282.09,359.89c0,15.62-17.71,28.28-39.57,28.28c-5.14,0-10.05-0.7-14.56-1.98
			c-0.31-1.79-0.48-3.64-0.48-5.52c0-17.39,14.11-31.49,31.5-31.49c9.12,0,17.35,3.88,23.09,10.08
			C282.09,359.47,282.09,359.68,282.09,359.89z"/>
		<g>
			<path class="st5" d="M227.29,376.59C227.29,376.59,227.29,376.59,227.29,376.59c0.01-0.01,0.01-0.01,0-0.02
				C227.29,376.58,227.29,376.58,227.29,376.59z"/>
			<path class="st5" d="M288.21,378.83c0.61,0.29,1.39,0.53,2.2,0.68c-0.02-0.59-0.06-1.17-0.11-1.75
				c-0.68-0.19-1.33-0.52-1.94-0.85c-1.13-0.6-2.22-1.35-3.19-2.17c-1.86-1.56-4.54-4.41-4.29-7.08c-0.24-0.59-0.05-1.03,0.56-1.32
				c0.37-0.77,0.79-0.82,1.25-0.14c0.62,0.28,1.29,1.04,1.8,1.49c1.05,0.91,2.08,1.85,3.07,2.81c0.54,0.53,1.12,1.07,1.7,1.62
				c-0.28-0.96-0.59-1.91-0.95-2.83c-0.13-0.33-0.26-0.65-0.4-0.97v-0.01c-0.19-0.45-0.4-0.9-0.61-1.33
				c-0.04-0.02-0.09-0.05-0.13-0.07c-1.13-0.6-2.22-1.35-3.19-2.17c-1.86-1.57-4.54-4.42-4.29-7.08c-0.1-0.27-0.12-0.5-0.05-0.7
				c-0.27-0.24-0.55-0.48-0.83-0.7c-0.23-0.19-0.46-0.37-0.69-0.55c-0.49-0.38-0.99-0.74-1.5-1.08c-0.26,0-0.47-0.02-0.59-0.06
				c-0.72-0.19-1.43-0.54-2.09-0.9c-1.13-0.59-2.22-1.34-3.19-2.16c-0.01,0-0.01-0.01-0.02-0.01l-0.01-0.01
				c-0.15-0.07-0.31-0.13-0.47-0.19h-0.01c-0.09-0.07-0.17-0.12-0.26-0.18c-0.51-0.32-0.96-0.53-1.37-0.62
				c-0.07-0.02-0.14-0.04-0.21-0.05c-0.25-0.04-0.48-0.04-0.68,0h-0.01c-0.23-0.06-0.44-0.13-0.67-0.19h-0.01
				c-0.09-0.11-0.17-0.22-0.24-0.33c-0.02,0.08-0.01,0.17,0.01,0.27c-0.02-0.01-0.05-0.01-0.07-0.02c0.03,0.04,0.05,0.09,0.08,0.13
				c0.11,1.04-2.31,1.14-2.88,0.98c-0.72-0.19-1.43-0.54-2.09-0.9c-0.64-0.34-1.28-0.73-1.88-1.15c-0.32-0.01-0.65-0.02-0.98-0.02
				c-0.38,0-0.76,0.01-1.14,0.02h-0.07c-0.23-0.14-0.52-0.14-0.77-0.05c-0.07,0.03-0.13,0.06-0.18,0.1h-0.01
				c-0.34,0.03-0.67,0.06-1,0.09c0.21,0.29,0.41,0.59,0.6,0.89c-0.27,0.21-0.49,0.49-0.66,0.84c0,0,0,0-0.01,0
				c-0.74,0.28-1.84,0.28-2.2,0.18c-0.72-0.19-1.43-0.54-2.09-0.9c-0.11-0.06-0.22-0.12-0.32-0.18h-0.01
				c-0.07,0.02-0.13,0.03-0.2,0.05h-0.01c-0.69,0.19-1.36,0.39-2.04,0.62c-0.02,0.01-0.04,0.01-0.06,0.02
				c0.09,0.06,0.19,0.13,0.29,0.19c0.53,0.47,1.05,0.96,1.56,1.45c1.97,1.9,4.32,3.97,5.77,6.33c0.11,1.04-2.32,1.14-2.89,0.98
				c-0.72-0.19-1.43-0.54-2.09-0.9c-1.12-0.59-2.21-1.34-3.19-2.16c-1.17-0.99-2.68-2.5-3.56-4.15c-0.39,0.2-0.78,0.41-1.16,0.63
				c-0.1,0.05-0.2,0.11-0.31,0.17c-0.41,0.24-0.83,0.49-1.23,0.75c1.48,1.43,2.98,2.96,4.02,4.64c0,0,0,0,0,0
				c-0.27,0.21-0.49,0.48-0.66,0.83c0,0,0,0-0.01,0c-0.73,0.29-1.84,0.29-2.2,0.19c-0.73-0.19-1.43-0.54-2.09-0.9
				c-1-0.52-1.98-1.17-2.86-1.89c-0.1,0.08-0.19,0.16-0.29,0.25c-0.36,0.32-0.71,0.65-1.05,1c-0.11,0.1-0.21,0.2-0.32,0.31
				c1.01,0.87,2,1.77,2.96,2.7c1.96,1.9,4.32,3.98,5.77,6.33c0.11,1.04-2.32,1.14-2.89,0.98c-0.72-0.19-1.43-0.54-2.09-0.89
				c-1.13-0.6-2.22-1.35-3.19-2.17c-0.15-0.13-0.31-0.26-0.47-0.4c-0.01-0.02-0.03-0.03-0.04-0.05c-0.62-0.71-1.28-1.39-1.95-2.05
				c-0.01-0.01-0.02-0.02-0.03-0.03c-0.3-0.38-0.59-0.79-0.83-1.2c-0.06,0.07-0.11,0.14-0.16,0.21c-0.32,0.43-0.62,0.87-0.92,1.31
				c-0.02,0.04-0.05,0.09-0.08,0.13c0.17,0.17,0.35,0.33,0.52,0.5c0.7,0.97,1.54,1.87,2.46,2.68c0.41,0.5,0.78,1.02,1.11,1.55
				c0.02,0.14-0.01,0.26-0.08,0.36c0,0.01-0.01,0.01-0.01,0.02c-0.13,0.09-0.24,0.19-0.35,0.31c-0.01,0-0.01,0.01-0.02,0.01
				c-0.72,0.38-2.03,0.39-2.43,0.28c-0.72-0.19-1.43-0.54-2.09-0.9c-0.45-0.24-0.9-0.5-1.33-0.79c-0.08,0.17-0.16,0.34-0.23,0.52
				c-0.17,0.38-0.33,0.76-0.49,1.15c-0.08,0.23-0.17,0.46-0.25,0.69c0.24,0.22,0.49,0.46,0.73,0.69c1.96,1.9,4.32,3.97,5.77,6.33
				c0.11,1.03-2.32,1.13-2.89,0.98c-0.72-0.2-1.43-0.55-2.09-0.9c-1.02-0.55-2.01-1.22-2.92-1.95c-0.11,0.58-0.2,1.15-0.27,1.74
				c-0.01,0.1-0.02,0.2-0.03,0.3c-0.06,0.51-0.11,1.02-0.14,1.53c0.12,0.07,0.24,0.2,0.36,0.38c0.63,0.27,1.29,1.04,1.81,1.49
				c1.05,0.91,2.07,1.85,3.07,2.81c1.96,1.9,4.31,3.97,5.77,6.33c0.11,1.03-2.32,1.13-2.89,0.98c-0.72-0.19-1.43-0.55-2.09-0.9
				c-1.13-0.6-2.22-1.35-3.19-2.17c-0.83-0.69-1.82-1.64-2.64-2.72c0.01,0.13,0.03,0.24,0.05,0.36v0.01c0,0.03,0.01,0.07,0.01,0.1
				v0.01c0.06,0.4,0.13,0.8,0.2,1.2c0.01,0.01,0.01,0.02,0.01,0.03c0.05,0.27,0.11,0.55,0.17,0.82c0.05,0.28,0.12,0.55,0.19,0.83
				c0.02,0.1,0.05,0.21,0.07,0.31c0.19,0.01,0.38,0.17,0.59,0.47c0.62,0.27,1.28,1.04,1.8,1.49c1.05,0.91,2.07,1.84,3.07,2.81
				c1.98,1.9,4.33,3.98,5.77,6.34c0.08,1.03-2.32,1.12-2.88,0.97c-0.73-0.2-1.43-0.55-2.09-0.9c-0.53-0.28-1.05-0.59-1.55-0.93
				c0.82,1.16,1.7,2.26,2.66,3.3l0.01,0.01c0.94,0.26,2.03,0.41,2.99,0.32c-0.12,0.83-0.08,1.75,0.08,2.58
				c0.77,0.64,1.57,1.24,2.4,1.81c-0.55-0.99-0.88-2.04-0.79-3.06c-0.23-0.59-0.04-1.03,0.57-1.32c0.37-0.77,0.78-0.82,1.24-0.14
				c0.63,0.28,1.29,1.04,1.81,1.49c1.05,0.91,2.07,1.85,3.07,2.81c1.53,1.48,3.3,3.07,4.69,4.81c0.13,0.04,0.25,0.07,0.38,0.09
				c0.47,0.11,0.95,0.2,1.43,0.28c0.21,0.03,0.42,0.07,0.63,0.1c0.05,0.02,0.09,0.06,0.13,0.1c-0.02-0.03-0.04-0.06-0.06-0.09
				c0.1,0.01,0.19,0.02,0.29,0.04c-1.22-1.46-2.23-3.21-2.07-4.89c-0.23-0.6-0.05-1.04,0.56-1.32c0.37-0.78,0.79-0.82,1.25-0.14
				c0.62,0.27,1.29,1.04,1.81,1.49c1.04,0.91,2.07,1.84,3.06,2.81c0.74,0.71,1.54,1.45,2.32,2.22c0.41-0.04,0.81-0.08,1.21-0.13
				c0.32-0.04,0.64-0.08,0.96-0.13c0.3-0.05,0.59-0.1,0.89-0.15c-0.92-1.27-1.57-2.7-1.44-4.08c-0.24-0.59-0.05-1.03,0.56-1.32
				c0.37-0.77,0.79-0.82,1.25-0.14c0.62,0.28,1.29,1.04,1.8,1.49c0.99,0.86,1.96,1.74,2.9,2.65c0.34-0.12,0.68-0.25,1.01-0.38
				c0.27-0.11,0.54-0.23,0.81-0.35c0.47-0.2,0.94-0.42,1.39-0.65c-0.63-0.19-1.26-0.5-1.84-0.81c-1.13-0.6-2.22-1.35-3.19-2.17
				c-1.86-1.57-4.54-4.42-4.29-7.08c-0.23-0.6-0.05-1.04,0.56-1.32c0.37-0.78,0.79-0.83,1.25-0.15c0.63,0.28,1.29,1.04,1.81,1.5
				c1.04,0.9,2.07,1.84,3.06,2.8c1.8,1.73,3.9,3.61,5.36,5.7c0.13-0.08,0.26-0.16,0.38-0.24c0.37-0.24,0.73-0.49,1.09-0.74
				c0.15-0.11,0.31-0.22,0.46-0.34c-0.25-0.19-0.5-0.4-0.75-0.6c-1.85-1.56-4.53-4.41-4.28-7.08c-0.24-0.59-0.05-1.03,0.56-1.32
				c0.37-0.78,0.79-0.82,1.25-0.14c0.62,0.27,1.28,1.04,1.8,1.49c1.05,0.91,2.07,1.85,3.07,2.81c0.61,0.59,1.25,1.18,1.89,1.8
				c0.41-0.41,0.8-0.82,1.19-1.25c-0.24-0.24-0.48-0.47-0.71-0.71c-0.21-0.21-0.41-0.42-0.63-0.63c0.61,0.22,1.33,0.41,2.06,0.51
				c0.49-0.59,0.97-1.2,1.42-1.83c-0.69,0.16-1.5,0.14-1.8,0.06c-0.72-0.19-1.43-0.54-2.09-0.9c-1.13-0.59-2.22-1.34-3.19-2.16
				c-1.86-1.57-4.54-4.42-4.29-7.09c-0.23-0.59-0.05-1.03,0.56-1.31c0.37-0.78,0.79-0.83,1.25-0.15c0.63,0.28,1.29,1.04,1.81,1.49
				c1.04,0.91,2.07,1.85,3.06,2.81c1.88,1.81,4.09,3.77,5.55,5.98c0.08,0.13,0.16,0.25,0.24,0.38c0-0.03-0.01-0.07-0.02-0.11
				c-0.09-0.41,0.08-0.73,0.34-0.9c-0.04-0.03-0.07-0.06-0.1-0.09c0.18-0.3,0.36-0.61,0.53-0.92c0.14-0.24,0.27-0.47,0.39-0.71
				c-1.59-1.61-3.19-3.81-2.99-5.89c-0.23-0.59-0.05-1.03,0.56-1.32c0.37-0.78,0.79-0.82,1.25-0.14c0.16,0.07,0.32,0.17,0.48,0.28
				c0.22,0.2,0.46,0.4,0.69,0.6c0.23,0.23,0.44,0.44,0.64,0.61c0.46,0.41,0.92,0.81,1.38,1.22c0.03-0.11,0.07-0.21,0.1-0.31
				c0.18-0.55,0.34-1.1,0.49-1.66c0.01-0.05,0.03-0.09,0.04-0.14c-0.37-0.25-0.73-0.51-1.08-0.79c-0.17-0.13-0.34-0.26-0.5-0.4
				c-0.03-0.03-0.07-0.06-0.1-0.08c-1.84-1.59-4.43-4.39-4.18-7.01c-0.24-0.59-0.05-1.03,0.56-1.31c0.37-0.78,0.78-0.83,1.24-0.15
				c0.63,0.28,1.29,1.04,1.81,1.49c1.05,0.91,2.07,1.85,3.07,2.81c0.03,0.03,0.06,0.06,0.09,0.09c0.07-0.8,0.1-1.6,0.11-2.42
				C289.71,380.17,288.98,379.48,288.21,378.83z M281.87,381.25c-0.77-0.81-1.57-1.58-2.33-2.35c-0.01-0.01-0.02-0.02-0.03-0.03
				c0.78,0.16,1.59,0.23,2.35,0.16c0,0,0,0,0,0C281.76,379.75,281.77,380.52,281.87,381.25z M271.71,390.89
				c0.04,0.13,0.08,0.26,0.13,0.38c-1.08-1.27-2.31-2.44-3.45-3.59c-0.21-0.21-0.42-0.42-0.63-0.64c1.08,0.41,2.49,0.66,3.71,0.55
				c0,0,0,0,0,0C271.32,388.67,271.42,389.89,271.71,390.89z M262.08,400.01c0,0,0,0.01,0,0.01c-0.89-0.99-1.85-1.93-2.76-2.84
				c0.87,0.21,1.82,0.31,2.68,0.24c0,0,0,0,0,0C261.88,398.25,261.92,399.17,262.08,400.01z M247.21,361.1
				c0.37-0.78,0.79-0.82,1.25-0.14c0.63,0.27,1.29,1.04,1.81,1.49c1.05,0.91,2.07,1.85,3.07,2.81c1.97,1.9,4.32,3.98,5.77,6.33
				c0.1,1.03-2.32,1.13-2.88,0.98c-0.72-0.19-1.43-0.55-2.09-0.9c-1.13-0.6-2.22-1.35-3.19-2.17c-1.85-1.56-4.54-4.42-4.29-7.08
				C246.41,361.82,246.6,361.38,247.21,361.1z M257.59,352.54c0.37-0.78,0.79-0.82,1.25-0.14c0.63,0.27,1.29,1.04,1.81,1.49
				c1.05,0.91,2.07,1.85,3.07,2.81c1.97,1.9,4.32,3.98,5.77,6.33c0.1,1.03-2.32,1.13-2.88,0.98c-0.72-0.19-1.43-0.55-2.09-0.9
				c-1.06-0.56-2.07-1.26-3-2.02c-0.1-0.08-0.21-0.17-0.31-0.25c-1.85-1.58-4.41-4.37-4.17-6.98
				C256.79,353.27,256.98,352.83,257.59,352.54z M269.4,352.91c0.63,0.28,1.29,1.04,1.81,1.5c1.05,0.9,2.07,1.84,3.07,2.8
				c1.96,1.9,4.31,3.98,5.77,6.33c0.11,1.04-2.32,1.14-2.89,0.98c-0.72-0.19-1.43-0.54-2.09-0.89c-1.13-0.6-2.22-1.35-3.19-2.17
				c-1.85-1.57-4.54-4.42-4.29-7.08c-0.23-0.6-0.04-1.04,0.56-1.32C268.52,352.28,268.94,352.23,269.4,352.91z M248.55,396.2
				c0.04,0.13,0.09,0.27,0.13,0.4c-0.08-0.08-0.17-0.17-0.25-0.25c-1.38-1.39-2.83-2.9-4.38-4.22c1.12,0.53,2.83,0.91,4.27,0.78
				C248.16,393.97,248.26,395.19,248.55,396.2z M238.52,379.49c0.63,0.27,1.29,1.04,1.81,1.49c1.05,0.91,2.07,1.85,3.07,2.81
				c1.97,1.9,4.32,3.98,5.77,6.33c0.1,1.03-2.32,1.13-2.88,0.98c-0.72-0.19-1.43-0.55-2.09-0.9c-1.13-0.6-2.22-1.35-3.19-2.17
				c-1.85-1.56-4.54-4.42-4.29-7.08c-0.23-0.59-0.05-1.03,0.56-1.32C237.65,378.86,238.06,378.81,238.52,379.49z M259.02,361.48
				c0.22,0.1,0.45,0.27,0.67,0.45c0.12,0.1,0.23,0.2,0.35,0.3c0.28,0.26,0.55,0.53,0.78,0.74c1.05,0.91,2.07,1.85,3.07,2.81
				c1.97,1.9,4.32,3.98,5.77,6.33c0.1,1.03-2.32,1.13-2.88,0.98c-0.72-0.19-1.43-0.55-2.09-0.9c-1.13-0.6-2.22-1.35-3.19-2.17
				c-1.85-1.56-4.54-4.42-4.29-7.08c-0.23-0.59-0.05-1.03,0.56-1.32C258.14,360.84,258.55,360.79,259.02,361.48z M266.28,365.64
				c0.75,0.16,1.55,0.23,2.28,0.17c-0.09,0.69-0.08,1.44,0.02,2.15C267.82,367.16,267.03,366.4,266.28,365.64z M258.42,377.61
				c0.04,0.13,0.08,0.25,0.12,0.37c-1.08-1.27-2.31-2.44-3.44-3.58c-0.19-0.19-0.38-0.39-0.58-0.58c1.07,0.4,2.45,0.66,3.65,0.56
				C258.04,375.43,258.14,376.62,258.42,377.61z M247.86,370.26c0.63,0.27,1.29,1.04,1.81,1.49c1.05,0.91,2.07,1.85,3.07,2.81
				c1.97,1.9,4.32,3.98,5.77,6.33c0.1,1.03-2.32,1.13-2.88,0.98c-0.72-0.19-1.43-0.55-2.09-0.9c-1.13-0.6-2.22-1.35-3.19-2.17
				c-1.85-1.56-4.53-4.42-4.29-7.08c-0.23-0.59-0.05-1.03,0.56-1.32C246.99,369.62,247.4,369.58,247.86,370.26z M246.09,383.95
				c0.85,0.21,1.78,0.31,2.62,0.24c-0.11,0.82-0.07,1.72,0.08,2.54C247.92,385.77,246.99,384.85,246.09,383.95z M257.88,394.72
				c-1.13-0.6-2.22-1.35-3.19-2.17c-1.85-1.56-4.54-4.42-4.29-7.08c-0.23-0.59-0.05-1.03,0.56-1.32c0.37-0.78,0.79-0.82,1.25-0.14
				c0.63,0.27,1.29,1.04,1.81,1.49c1.05,0.91,2.07,1.85,3.07,2.81c1.97,1.9,4.32,3.98,5.77,6.33c0.1,1.03-2.32,1.13-2.88,0.98
				C259.25,395.43,258.54,395.07,257.88,394.72z M257.76,386.44c-1.14-1.14-2.33-2.27-3.59-3.25c1.05,0.36,2.35,0.58,3.49,0.47
				C257.53,384.56,257.57,385.56,257.76,386.44z M264.16,382.73c-1.85-1.56-4.54-4.42-4.29-7.08c-0.23-0.59-0.05-1.03,0.56-1.32
				c0.37-0.78,0.79-0.82,1.25-0.14c0.63,0.27,1.29,1.04,1.81,1.49c1.05,0.91,2.07,1.85,3.07,2.81c1.97,1.9,4.32,3.98,5.77,6.33
				c0.1,1.03-2.32,1.13-2.88,0.98c-0.72-0.19-1.43-0.55-2.09-0.9C266.23,384.3,265.14,383.55,264.16,382.73z M269.04,378.18
				c0.04,0.13,0.09,0.27,0.13,0.4c-0.08-0.08-0.17-0.17-0.25-0.25c-1.38-1.39-2.83-2.9-4.39-4.22c1.12,0.53,2.83,0.91,4.27,0.78
				C268.66,375.96,268.75,377.18,269.04,378.18z M277.74,376.34c-1.13-0.6-2.22-1.35-3.19-2.17c-1.85-1.56-4.54-4.42-4.29-7.08
				c-0.23-0.59-0.05-1.03,0.56-1.32c0.37-0.78,0.79-0.82,1.25-0.14c0.63,0.27,1.29,1.04,1.81,1.49c1.05,0.91,2.07,1.85,3.07,2.81
				c1.97,1.9,4.32,3.98,5.77,6.33c0.1,1.03-2.32,1.13-2.88,0.98C279.1,377.05,278.4,376.69,277.74,376.34z M279.43,369.62
				c0.04,0.13,0.08,0.26,0.13,0.39v0.01c-0.08-0.08-0.17-0.17-0.25-0.25c-1.38-1.39-2.83-2.91-4.39-4.23h0.01
				c1.12,0.54,2.83,0.92,4.26,0.79C279.04,367.4,279.14,368.62,279.43,369.62z M249.62,381.41c0.1,1.03-2.32,1.13-2.88,0.98
				c-0.72-0.19-1.43-0.55-2.09-0.9c-1.13-0.6-2.22-1.35-3.19-2.17c-1.85-1.56-4.54-4.42-4.29-7.08c-0.23-0.59-0.05-1.03,0.56-1.32
				c0.37-0.78,0.79-0.82,1.25-0.14c0.63,0.27,1.29,1.04,1.81,1.49c1.05,0.91,2.07,1.85,3.07,2.81
				C245.83,376.98,248.18,379.06,249.62,381.41z M246.86,402.91c-1.13-0.6-2.22-1.35-3.19-2.17c-1.85-1.56-4.54-4.42-4.29-7.08
				c-0.23-0.59-0.05-1.03,0.56-1.32c0.37-0.78,0.79-0.82,1.25-0.14c0.63,0.27,1.29,1.04,1.81,1.49c1.05,0.91,2.07,1.85,3.07,2.81
				c1.97,1.9,4.32,3.98,5.77,6.33c0.1,1.03-2.32,1.13-2.88,0.98C248.23,403.62,247.52,403.26,246.86,402.91z M254.29,401.32
				c-1.85-1.56-4.54-4.42-4.29-7.08c-0.23-0.59-0.05-1.03,0.56-1.32c0.37-0.78,0.79-0.82,1.25-0.14c0.63,0.27,1.29,1.04,1.81,1.49
				c1.05,0.91,2.07,1.85,3.07,2.81c1.97,1.9,4.32,3.98,5.77,6.33c0.1,1.03-2.32,1.13-2.88,0.98c-0.72-0.19-1.43-0.55-2.09-0.9
				C256.35,402.89,255.26,402.14,254.29,401.32z M263.63,392.09c-1.85-1.56-4.54-4.42-4.29-7.08c-0.23-0.59-0.05-1.03,0.56-1.32
				c0.37-0.78,0.79-0.82,1.25-0.14c0.63,0.27,1.29,1.04,1.81,1.49c1.05,0.91,2.07,1.85,3.07,2.81c1.97,1.9,4.32,3.98,5.77,6.33
				c0.1,1.03-2.32,1.13-2.88,0.98c-0.72-0.19-1.43-0.55-2.09-0.9C265.69,393.66,264.6,392.91,263.63,392.09z M274.78,383.31
				c-1.85-1.56-4.54-4.42-4.29-7.08c-0.23-0.59-0.05-1.03,0.56-1.32c0.37-0.78,0.79-0.82,1.25-0.14c0.63,0.27,1.29,1.04,1.81,1.49
				c1.05,0.91,2.07,1.85,3.07,2.81c1.97,1.9,4.32,3.98,5.77,6.33c0.1,1.03-2.32,1.13-2.88,0.98c-0.72-0.19-1.43-0.55-2.09-0.9
				C276.84,384.88,275.75,384.13,274.78,383.31z M277.99,356.39c-0.09,0.65-0.08,1.35,0.01,2.02c-0.46-0.46-0.92-0.91-1.36-1.36
				c-0.26-0.26-0.53-0.53-0.8-0.81C276.55,356.38,277.3,356.44,277.99,356.39z M265.89,353.11c-0.14,1.05-0.04,2.24,0.25,3.22
				c0.04,0.14,0.08,0.27,0.13,0.4c-0.06-0.06-0.13-0.13-0.19-0.19c-1.38-1.39-2.83-2.91-4.39-4.23h0.01
				C262.8,352.84,264.47,353.22,265.89,353.11z M253.66,353.02c0.54,0.08,1.1,0.12,1.62,0.1c0,0,0,0,0,0
				c-0.03,0.53-0.01,1.08,0.07,1.61c0,0,0,0,0,0C254.8,354.14,254.22,353.57,253.66,353.02z M255.51,361.67
				c-0.14,1.06-0.04,2.24,0.25,3.22c0.04,0.13,0.09,0.27,0.13,0.4c-0.07-0.07-0.13-0.13-0.2-0.2c-1.38-1.39-2.83-2.9-4.38-4.22
				c0,0,0,0,0.01,0C252.42,361.4,254.09,361.78,255.51,361.67z M241.97,361.27c0.9,0.28,1.96,0.45,2.92,0.41c0,0,0.01,0,0.01,0
				c-0.05,0.91,0.06,1.88,0.29,2.69c0.04,0.12,0.08,0.24,0.12,0.36c0,0,0,0,0,0C244.27,363.5,243.07,362.37,241.97,361.27z
				 M244.35,370.45C244.35,370.45,244.36,370.45,244.35,370.45c-0.11,0.88-0.06,1.84,0.12,2.7c-1.12-1.12-2.29-2.23-3.53-3.18h0
				C241.98,370.32,243.24,370.54,244.35,370.45z M232.8,370.67c0.84,0.24,1.78,0.39,2.66,0.36c0,0,0.01,0,0.01,0
				c-0.1,0.8-0.06,1.66,0.09,2.46C234.67,372.5,233.71,371.57,232.8,370.67z M230.82,378.88c1.1,0.53,2.77,0.91,4.19,0.8
				c0,0,0.01,0,0.01,0c-0.14,1.06-0.04,2.25,0.24,3.23c0.04,0.14,0.09,0.27,0.13,0.4l-0.2-0.2
				C233.82,381.72,232.38,380.2,230.82,378.88z M235.51,392.24c0.72,0.14,1.47,0.21,2.17,0.15c0,0,0,0,0.01,0
				c-0.09,0.65-0.08,1.35,0,2.03c-0.46-0.46-0.92-0.91-1.36-1.35C236.06,392.8,235.79,392.52,235.51,392.24z M249.61,406.35
				c-0.28-0.28-0.57-0.57-0.86-0.87c0,0-0.01-0.01-0.01-0.01c0.74,0.15,1.52,0.21,2.24,0.14c-0.1,0.68-0.09,1.41,0,2.11
				C250.52,407.25,250.06,406.8,249.61,406.35z M261.72,409.63c-1.38-1.39-2.82-2.9-4.37-4.22l0,0c1.12,0.53,2.82,0.91,4.25,0.78
				c0,0,0,0,0,0c-0.15,1.07-0.05,2.29,0.24,3.29c0.04,0.13,0.08,0.27,0.13,0.4L261.72,409.63z M267.47,396.49c0,0-0.01,0-0.01-0.01
				c1.05,0.36,2.35,0.58,3.48,0.47c0,0,0,0,0,0.01c-0.13,0.9-0.08,1.9,0.12,2.78C269.92,398.6,268.73,397.46,267.47,396.49z
				 M282.21,391.61c-1.38-1.38-2.82-2.9-4.37-4.21c-0.01-0.01-0.01-0.02-0.02-0.01c0,0-0.01-0.01-0.01-0.01c0,0,0.01,0,0.01,0.01
				c1.12,0.53,2.83,0.92,4.27,0.78c-0.15,1.08-0.05,2.3,0.24,3.3c0.04,0.13,0.08,0.26,0.13,0.38
				C282.37,391.77,282.29,391.69,282.21,391.61z"/>
		</g>
		<g>
			<path class="st12" d="M258.98,413.01c-1.43,0-2.9-0.1-4.36-0.29c-0.13-0.02-0.2-0.03-0.27-0.04l-0.73-0.11
				c-0.52-0.09-1.02-0.18-1.51-0.29c-0.1-0.01-0.26-0.05-0.44-0.11c-3.83-0.87-7.49-2.45-10.83-4.7c-0.89-0.61-1.7-1.22-2.47-1.86
				c-1.11-0.93-2.17-1.93-3.15-2.98c-0.98-1.06-1.87-2.17-2.75-3.4c-2.25-3.22-3.88-6.77-4.84-10.54l-0.08-0.36
				c-0.08-0.31-0.15-0.57-0.19-0.85c-0.04-0.18-0.08-0.38-0.13-0.59l-0.01-0.01l-0.04-0.25c-0.07-0.41-0.14-0.81-0.2-1.22
				l-0.01-0.12c-0.03-0.15-0.05-0.28-0.06-0.43c-0.18-1.33-0.27-2.75-0.27-4.19c0-0.77,0.02-1.47,0.07-2.14
				c0.03-0.51,0.08-1.04,0.14-1.57l0.03-0.28c0.07-0.61,0.16-1.17,0.27-1.75l0.01-0.07c0.33-1.81,0.81-3.59,1.44-5.29l0.24-0.67
				c0.18-0.44,0.34-0.83,0.52-1.22c0.06-0.16,0.15-0.35,0.24-0.54c0.63-1.37,1.4-2.76,2.28-4.12l0.09-0.15
				c0.31-0.46,0.62-0.9,0.94-1.34c0.07-0.1,0.13-0.18,0.2-0.25c0.81-1.1,1.77-2.21,2.8-3.27c0.12-0.13,0.24-0.23,0.36-0.34
				c0.32-0.33,0.68-0.67,1.06-1.01c0.11-0.1,0.21-0.19,0.32-0.28c1.17-1.05,2.49-2.04,3.87-2.93c0.41-0.26,0.84-0.52,1.26-0.77
				l0.12-0.07c0.08-0.05,0.16-0.09,0.24-0.13c0.34-0.2,0.75-0.42,1.15-0.63c1.39-0.71,2.79-1.3,4.17-1.77l0.12-0.04
				c0.7-0.23,1.38-0.44,2.09-0.63l0.31-0.07c1.56-0.4,3.15-0.68,4.73-0.84l1.38-0.1c0.17-0.02,0.4-0.03,0.64-0.04l0.11,0
				c0.81-0.02,1.43-0.02,2.09,0c2.41,0.07,4.76,0.4,7.01,0.97l0.32,0.08c0.12,0.03,0.24,0.07,0.35,0.1
				c0.07,0.02,0.14,0.04,0.21,0.06l0.13,0.03l0.54,0.16c0.14,0.05,0.24,0.08,0.33,0.1c0.59,0.19,1.12,0.38,1.63,0.58l0.1,0.04
				c0.13,0.05,0.25,0.1,0.37,0.14h0.17l0.14,0.13c2.05,0.82,4.03,1.88,5.88,3.15c0.51,0.34,1.04,0.72,1.54,1.11
				c0.25,0.2,0.48,0.38,0.71,0.57c0.28,0.22,0.57,0.47,0.86,0.72c3.31,2.88,5.96,6.35,7.87,10.3c0.22,0.44,0.43,0.91,0.63,1.37
				l0.07,0.17c0.12,0.27,0.23,0.55,0.34,0.83c0.34,0.87,0.66,1.82,0.98,2.91l0.04,0.14c0.51,1.85,0.86,3.75,1.04,5.67
				c0.05,0.6,0.09,1.2,0.11,1.8c0.01,0.45,0.02,0.82,0.02,1.19v0.21c-0.01,0.97-0.05,1.76-0.11,2.5c-0.15,1.84-0.47,3.69-0.94,5.5
				l-0.04,0.13c-0.16,0.59-0.32,1.16-0.51,1.72l-0.1,0.33c-0.57,1.65-1.26,3.26-2.07,4.76c-0.12,0.24-0.26,0.48-0.41,0.74
				c-0.16,0.3-0.35,0.62-0.53,0.93c-0.17,0.28-0.32,0.52-0.48,0.76c-0.28,0.43-0.57,0.86-0.88,1.29c-0.42,0.59-0.9,1.21-1.46,1.88
				l-0.08,0.09c-0.22,0.26-0.44,0.51-0.66,0.76c-0.41,0.45-0.81,0.87-1.23,1.29c-1.12,1.12-2.34,2.17-3.64,3.13
				c-0.09,0.07-0.21,0.16-0.34,0.25l-0.13,0.09c-0.39,0.27-0.75,0.52-1.13,0.77c-0.12,0.08-0.26,0.16-0.4,0.25
				c-0.92,0.59-1.84,1.11-2.79,1.57c-0.46,0.23-0.95,0.46-1.43,0.67c-0.26,0.12-0.54,0.24-0.82,0.36c-0.35,0.14-0.7,0.27-1.05,0.39
				c-1.61,0.6-3.36,1.09-5.2,1.44l-0.91,0.15c-0.34,0.05-0.67,0.09-1,0.13c-0.41,0.05-0.82,0.09-1.23,0.13
				C260.78,412.97,259.87,413.01,258.98,413.01z M254.66,410.93c0.08,0.01,0.17,0.02,0.25,0.04c1.33,0.17,2.71,0.26,4.07,0.26
				c0.85,0,1.7-0.04,2.62-0.11c0.39-0.04,0.78-0.08,1.17-0.13c0.31-0.04,0.62-0.08,0.93-0.13l0.88-0.15
				c1.72-0.33,3.38-0.78,4.91-1.36c0.35-0.12,0.68-0.25,1-0.37c0.25-0.1,0.51-0.22,0.77-0.34c0.47-0.2,0.92-0.41,1.35-0.63
				c0.91-0.44,1.77-0.93,2.65-1.49c0.13-0.08,0.25-0.16,0.36-0.23c0.37-0.24,0.72-0.49,1.08-0.73l0.12-0.09
				c0.1-0.07,0.2-0.14,0.29-0.22c1.25-0.92,2.41-1.92,3.47-2.98c0.4-0.4,0.78-0.8,1.16-1.22c0.21-0.23,0.42-0.48,0.64-0.73
				l0.07-0.08c0.52-0.63,0.97-1.21,1.37-1.77c0.29-0.41,0.57-0.82,0.84-1.24c0.16-0.23,0.29-0.46,0.44-0.68
				c0.18-0.3,0.35-0.6,0.52-0.9c0.14-0.24,0.26-0.46,0.38-0.68c0.76-1.42,1.41-2.92,1.94-4.46l0.01-0.02
				c0.02-0.08,0.05-0.15,0.07-0.22l0.03-0.1c0.18-0.56,0.34-1.09,0.48-1.64l0.04-0.12c0.45-1.71,0.74-3.46,0.89-5.21
				c0.06-0.7,0.1-1.45,0.11-2.36v-0.2c0-0.36-0.01-0.71-0.02-1.06c-0.02-0.64-0.06-1.21-0.11-1.77c-0.17-1.85-0.51-3.69-1.01-5.47
				l-0.03-0.12c-0.29-0.98-0.58-1.85-0.89-2.63c-0.13-0.32-0.25-0.63-0.39-0.94l-0.07-0.19c-0.16-0.38-0.34-0.76-0.52-1.12
				c-1.81-3.74-4.32-7.01-7.45-9.74c-0.26-0.23-0.53-0.46-0.8-0.67c-0.23-0.19-0.45-0.36-0.67-0.54c-0.49-0.38-0.97-0.72-1.46-1.05
				c-1.76-1.2-3.62-2.2-5.55-2.97l-0.22-0.01l-0.15-0.15c-0.04-0.02-0.08-0.03-0.12-0.05h-0.01l-0.17-0.06
				c-0.51-0.2-1.04-0.39-1.57-0.56c-0.08-0.02-0.22-0.06-0.37-0.11l-0.49-0.14c-0.13-0.03-0.25-0.07-0.37-0.1l-0.68-0.18
				c-2.11-0.53-4.29-0.83-6.5-0.89c-0.74-0.02-1.33-0.02-1.97,0l-0.12,0c-0.25,0.01-0.45,0.02-0.66,0.04l-1.29,0.1
				c-1.54,0.15-3.02,0.42-4.54,0.81l-0.12,0.03c-0.01,0-0.01,0-0.02,0l-0.1,0.02c-0.64,0.18-1.26,0.36-1.89,0.57l-0.13,0.05
				c-1.32,0.44-2.66,1.01-3.99,1.69c-0.37,0.19-0.75,0.39-1.12,0.61l-0.33,0.18c-0.38,0.22-0.78,0.46-1.17,0.72
				c-1.31,0.84-2.55,1.78-3.68,2.79c-0.12,0.1-0.2,0.17-0.29,0.25c-0.35,0.31-0.68,0.63-1.01,0.96c-0.14,0.13-0.23,0.22-0.33,0.32
				c-0.98,1-1.88,2.05-2.68,3.12c-0.07,0.09-0.1,0.13-0.13,0.17c-0.33,0.44-0.61,0.86-0.9,1.28c-0.04,0.07-0.09,0.14-0.13,0.2
				c-0.8,1.24-1.53,2.55-2.12,3.85c-0.08,0.16-0.15,0.31-0.21,0.47c-0.18,0.41-0.34,0.79-0.5,1.17l-0.23,0.65
				c-0.59,1.59-1.04,3.25-1.35,4.93l-0.02,0.09c-0.11,0.56-0.19,1.11-0.26,1.68l-0.03,0.28c-0.06,0.51-0.11,1-0.14,1.49
				c-0.05,0.65-0.07,1.31-0.07,2.03c0,1.36,0.09,2.7,0.26,3.99l0.01,0.12c0,0.04,0.02,0.12,0.03,0.2l0.02,0.16c0,0,0,0.01,0,0.01
				c0,0,0,0.02,0,0.03c0.04,0.29,0.09,0.59,0.15,0.88l0.06,0.06l0.01,0.28c0.04,0.24,0.1,0.49,0.15,0.73
				c0.05,0.27,0.1,0.49,0.16,0.72l0.1,0.44c0.9,3.52,2.44,6.87,4.57,9.91c0.83,1.17,1.67,2.22,2.59,3.21c0.93,1,1.94,1.95,3,2.83
				c0.73,0.61,1.49,1.18,2.34,1.76c3.14,2.12,6.61,3.62,10.28,4.46c0.15,0.04,0.23,0.07,0.32,0.08c0.52,0.12,0.98,0.21,1.44,0.28
				L254.66,410.93z"/>
		</g>
	</g>
	<g>
		<g>
			<path class="st8" d="M252.92,248.92l-15.36-21.09l0.7-21.94l0.89,0.03c0.86,0.03,1.57-0.64,1.6-1.5c0.03-0.86-0.64-1.57-1.5-1.6
				l-9.11-0.29c-0.86-0.03-1.57,0.64-1.6,1.5c-0.03,0.86,0.64,1.57,1.5,1.6l0.89,0.03l-0.71,22.25l-15.6,20.62
				c-1.81,2.4-0.13,5.83,2.88,5.87l32.42,0.35C252.93,254.77,254.69,251.35,252.92,248.92z"/>
			<g>
				<path class="st6" d="M231.27,211.27c0,0,0.8,1.12,2.8,0.21l0,0c1.4-1.14,3.49-0.1,3.43,1.7l-0.53,14.97l14.59,21.13
					c0.62,0.9,0.66,2.08,0.1,3.02l0,0c-0.51,0.86-1.43,1.38-2.42,1.37l-30.54-0.16c-0.99-0.01-1.91-0.54-2.41-1.4l-0.52-0.9
					c-0.56-0.97-0.49-2.19,0.18-3.09l15.08-20.07L231.27,211.27z"/>
				<path class="st6" d="M229.26,246.26c0.23,1.71-0.98,3.28-2.69,3.5c-1.71,0.23-3.28-0.98-3.5-2.69c-0.23-1.71,0.98-3.28,2.69-3.5
					C227.46,243.35,229.03,244.55,229.26,246.26z"/>
				<path class="st6" d="M249.19,248.86c0.23,1.71-0.98,3.28-2.69,3.5c-1.71,0.23-3.28-0.98-3.5-2.69c-0.23-1.71,0.98-3.28,2.69-3.5
					C247.4,245.95,248.96,247.15,249.19,248.86z"/>
				<path class="st6" d="M229.77,236.97c0.1,0.79-0.45,1.51-1.24,1.62c-0.79,0.1-1.51-0.45-1.62-1.24c-0.1-0.79,0.45-1.51,1.24-1.62
					C228.94,235.63,229.67,236.18,229.77,236.97z"/>
				<path class="st6" d="M235.37,238.62c0.28,0.22,0.34,0.62,0.12,0.91c-0.22,0.28-0.62,0.34-0.91,0.12
					c-0.28-0.22-0.34-0.62-0.12-0.91C234.68,238.45,235.09,238.4,235.37,238.62z"/>
				<path class="st6" d="M233.34,229.06c0.28,0.22,0.34,0.62,0.12,0.91c-0.22,0.28-0.62,0.34-0.91,0.12
					c-0.28-0.22-0.34-0.62-0.12-0.91S233.06,228.84,233.34,229.06z"/>
				<path class="st6" d="M219.87,248.8c0.28,0.22,0.34,0.62,0.12,0.91c-0.22,0.28-0.62,0.34-0.91,0.12s-0.34-0.62-0.12-0.91
					C219.18,248.64,219.59,248.58,219.87,248.8z"/>
				<path class="st6" d="M233.68,214.25c0.28,0.22,0.34,0.62,0.12,0.91c-0.22,0.28-0.62,0.34-0.91,0.12s-0.34-0.62-0.12-0.91
					C232.99,214.08,233.39,214.03,233.68,214.25z"/>
				<path class="st6" d="M244.95,242.04c0.28,0.22,0.34,0.62,0.12,0.91c-0.22,0.28-0.62,0.34-0.91,0.12s-0.34-0.62-0.12-0.91
					S244.67,241.82,244.95,242.04z"/>
				<path class="st6" d="M235.47,248.59c0.1,0.75-0.43,1.44-1.18,1.54c-0.75,0.1-1.44-0.43-1.54-1.18c-0.1-0.75,0.43-1.44,1.18-1.54
					C234.68,247.31,235.37,247.84,235.47,248.59z"/>
				<path class="st6" d="M236.07,218.15c0.1,0.79-0.45,1.51-1.24,1.62c-0.79,0.1-1.51-0.45-1.62-1.24c-0.1-0.79,0.45-1.51,1.24-1.62
					C235.24,216.8,235.97,217.36,236.07,218.15z"/>
				<path class="st6" d="M236.55,233.42c0.1,0.79-0.45,1.51-1.24,1.62c-0.79,0.1-1.51-0.45-1.62-1.24c-0.1-0.79,0.45-1.51,1.24-1.62
					C235.72,232.08,236.44,232.63,236.55,233.42z"/>
				<path class="st6" d="M241.21,242.99c0.1,0.79-0.45,1.51-1.24,1.62c-0.79,0.1-1.51-0.45-1.62-1.24c-0.1-0.79,0.45-1.51,1.24-1.62
					C240.38,241.65,241.11,242.2,241.21,242.99z"/>
				<path class="st6" d="M235.7,223.27c0.14,1.06-0.6,2.03-1.66,2.17c-1.06,0.14-2.03-0.6-2.17-1.66c-0.14-1.06,0.6-2.03,1.66-2.17
					C234.59,221.47,235.56,222.21,235.7,223.27z"/>
			</g>
		</g>
		<path class="st2" d="M243.9,216.38c-13.85,0-27.71,0-41.56,0c0-16.64,0,1.35,0-15.3c0-1.24-1.93-1.25-1.93,0
			c0,16.64,0-1.35,0,15.3c-0.21,0-0.43,0-0.64,0c-1.24,0-1.25,1.93,0,1.93c0.21,0,0.43,0,0.64,0c0,31.14,0,62.28,0,93.43
			c0,1.24,1.93,1.25,1.93,0c0-31.14,0-62.28,0-93.43c13.85,0,27.71,0,41.56,0C245.14,218.31,245.14,216.38,243.9,216.38z"/>
		<path class="st2" d="M202.74,316.73h-2.42c-1.73,0-3.14-1.41-3.14-3.14l0,0c0-1.73,1.41-3.14,3.14-3.14h2.42
			c1.73,0,3.14,1.41,3.14,3.14l0,0C205.88,315.33,204.48,316.73,202.74,316.73z"/>
		<rect x="186.55" y="316.73" class="st2" width="94.39" height="3.38"/>
		<g>
			<path class="st15" d="M248.89,311.63v5.11h-27.38v-5.21c0-2.84,1.2-5.54,3.3-7.45l5.88-5.3h8.7l3.61,3.14l2.46,2.15
				C247.64,305.98,248.89,308.73,248.89,311.63z"/>
			<g>
				<path class="st5" d="M248.89,311.63v5.11H225.4c-0.31-3.48,2.92-7.79,5.5-9.58c1.36-0.95,2.89-1.38,4.48-1.8
					c1.85-0.5,3.41-1.31,5.17-2.04c0.48-0.2,1.4-0.71,2.45-1.4l2.46,2.15C247.64,305.98,248.89,308.73,248.89,311.63z"/>
			</g>
			<path class="st2" d="M236.98,295.01v-2.17c0-0.24-0.19-0.43-0.43-0.43h-2.9c-0.24,0-0.43,0.19-0.43,0.43v2.17
				c0,0.64-0.52,1.15-1.15,1.15h-0.1c-0.71,0-1.28,0.57-1.28,1.28v1.33h8.72v-1.33c0-0.7-0.57-1.28-1.28-1.28l0,0
				C237.49,296.17,236.98,295.65,236.98,295.01z"/>
		</g>
		<g>
			<g>
				<path class="st6" d="M240.64,276.8c-0.14-0.91-0.37-1.8-0.71-2.64c-0.06-0.15-1.51-2.66-1.74-2.24c-0.61,1.1-0.73,2.67-1.78,3.5
					c-0.98-3.95-3.98-6.15-5.95-9.51c0.04,1.72,0.09,3.49,0.01,5.21c-0.13,2.91-1.16,5.69-1.19,8.61c-0.03,2.84,0.74,5.65,2.3,8.03
					c0.68,1.04,1.58,2.05,2.79,2.38c3.52,0.96,5.42-4.01,5.99-6.61C240.81,281.4,240.99,279.02,240.64,276.8z"/>
			</g>
		</g>
		<g>
			<g>
				<path class="st3" d="M237.69,283.27c-0.07-0.43-0.18-0.85-0.34-1.25c-0.03-0.07-0.71-1.26-0.82-1.06
					c-0.29,0.52-0.34,1.26-0.84,1.65c-0.47-1.87-1.88-2.91-2.81-4.5c0.02,0.81,0.04,1.65,0.01,2.46c-0.06,1.37-0.55,2.69-0.56,4.07
					c-0.01,1.34,0.35,2.67,1.09,3.79c0.32,0.49,0.75,0.97,1.32,1.12c1.66,0.45,2.56-1.89,2.83-3.12
					C237.77,285.45,237.86,284.32,237.69,283.27z"/>
			</g>
		</g>
	</g>
	<g>
		<g>
			<path class="st2" d="M157.78,245.53c-0.83,0-1.5-0.87-1.5-1.93v-14.4c0-1.07,0.67-1.93,1.5-1.93c0.83,0,1.5,0.87,1.5,1.93v14.4
				C159.28,244.66,158.61,245.53,157.78,245.53z"/>
		</g>
		<g>
			<path class="st2" d="M172.48,236.4c-0.33,0-0.67-0.11-0.94-0.34l-6.59-5.35c-0.64-0.52-0.74-1.47-0.22-2.11
				c0.52-0.64,1.47-0.74,2.11-0.22l6.59,5.35c0.64,0.52,0.74,1.47,0.22,2.11C173.35,236.21,172.91,236.4,172.48,236.4z"/>
		</g>
		<g>
			<path class="st2" d="M163.94,222.81c-0.41,0-0.82-0.17-1.11-0.5c-0.56-0.62-0.51-1.56,0.11-2.12l7.63-6.88
				c0.61-0.55,1.56-0.51,2.12,0.11c0.56,0.62,0.51,1.56-0.11,2.12l-7.63,6.88C164.66,222.68,164.3,222.81,163.94,222.81z"/>
		</g>
		<g>
			<path class="st2" d="M155.95,223.69c-0.35,0-0.7-0.12-0.98-0.37l-6.58-5.7c-0.63-0.54-0.69-1.49-0.15-2.12
				c0.54-0.63,1.49-0.7,2.12-0.15l6.58,5.7c0.63,0.54,0.69,1.49,0.15,2.12C156.79,223.51,156.37,223.69,155.95,223.69z"/>
		</g>
		<g>
			<path class="st2" d="M134.88,231.05c-0.74,0-1.39-0.55-1.49-1.31c-0.11-0.82,0.47-1.57,1.29-1.68l18.74-2.43
				c0.82-0.11,1.57,0.47,1.68,1.29c0.11,0.82-0.47,1.57-1.29,1.68l-18.74,2.43C135.01,231.04,134.95,231.05,134.88,231.05z"/>
		</g>
		<path class="st6" d="M167.13,227.11c0,3.94-3.19,7.13-7.13,7.13c-3.94,0-7.13-3.19-7.13-7.13s3.19-7.13,7.13-7.13
			C163.94,219.99,167.13,223.18,167.13,227.11z"/>
		<path class="st3" d="M164.69,227.11c0,2.59-2.1,4.69-4.69,4.69c-2.59,0-4.69-2.1-4.69-4.69c0-2.59,2.1-4.69,4.69-4.69
			C162.59,222.42,164.69,224.52,164.69,227.11z"/>
		<path class="st12" d="M161.66,246.9c0,2.14-1.74,3.88-3.88,3.88c-2.14,0-3.88-1.74-3.88-3.88c0-2.14,1.74-3.88,3.88-3.88
			C159.92,243.02,161.66,244.76,161.66,246.9z"/>
		<circle class="st12" cx="133.71" cy="229.87" r="3"/>
		<path class="st12" d="M152.19,214.43c0,2.2-1.78,3.99-3.99,3.99c-2.2,0-3.99-1.78-3.99-3.99c0-2.2,1.78-3.99,3.99-3.99
			C150.4,210.44,152.19,212.23,152.19,214.43z"/>
		<circle class="st12" cx="173.58" cy="212.79" r="4.1"/>
		<path class="st12" d="M171.33,236.72c0,2.14,1.74,3.88,3.88,3.88c2.14,0,3.88-1.74,3.88-3.88c0-2.14-1.74-3.88-3.88-3.88
			C173.06,232.85,171.33,234.58,171.33,236.72z"/>
		<path class="st16" d="M160,233.49"/>
	</g>
	<g>
		<g>
			<path class="st2" d="M271.11,95.73c-0.14-0.61,0.38-1.25,1.17-1.43l10.59-2.44c0.79-0.18,1.54,0.17,1.68,0.77
				c0.14,0.61-0.38,1.25-1.17,1.43l-10.59,2.44C272,96.69,271.25,96.34,271.11,95.73z"/>
		</g>
		<g>
			<path class="st2" d="M280.32,104.98c-0.06-0.24-0.03-0.51,0.09-0.75l2.81-5.75c0.27-0.56,0.95-0.79,1.51-0.52
				c0.56,0.27,0.79,0.95,0.52,1.51l-2.81,5.75c-0.27,0.56-0.95,0.79-1.51,0.52C280.6,105.59,280.39,105.3,280.32,104.98z"/>
		</g>
		<g>
			<path class="st2" d="M288.86,96.4c-0.07-0.3-0.02-0.63,0.17-0.9c0.36-0.51,1.06-0.64,1.58-0.28l6.35,4.44
				c0.51,0.36,0.64,1.06,0.28,1.58c-0.36,0.51-1.06,0.64-1.58,0.28l-6.35-4.44C289.07,96.91,288.92,96.67,288.86,96.4z"/>
		</g>
		<g>
			<path class="st2" d="M286.85,90.68c-0.06-0.26-0.03-0.53,0.1-0.78l3.07-5.8c0.29-0.55,0.98-0.76,1.53-0.47
				c0.55,0.29,0.76,0.98,0.47,1.53l-3.07,5.8c-0.29,0.55-0.98,0.76-1.53,0.47C287.12,91.27,286.92,90.99,286.85,90.68z"/>
		</g>
		<g>
			<path class="st2" d="M277.87,76.44c-0.13-0.55,0.17-1.11,0.71-1.31c0.59-0.22,1.24,0.08,1.45,0.67L285,89.16
				c0.22,0.58-0.08,1.24-0.67,1.45c-0.59,0.22-1.24-0.08-1.45-0.67l-4.97-13.36C277.89,76.54,277.88,76.49,277.87,76.44z"/>
		</g>
		<path class="st6" d="M286.23,99.47c-2.89,0.67-5.78-1.14-6.45-4.03c-0.67-2.89,1.14-5.78,4.03-6.45c2.89-0.67,5.78,1.14,6.45,4.03
			C290.93,95.92,289.12,98.81,286.23,99.47z"/>
		<path class="st3" d="M285.82,97.69c-1.91,0.44-3.81-0.75-4.25-2.65c-0.44-1.9,0.75-3.81,2.65-4.25c1.91-0.44,3.81,0.75,4.25,2.65
			C288.91,95.35,287.72,97.25,285.82,97.69z"/>
		<path class="st12" d="M270.76,98.81c-1.57,0.36-3.14-0.62-3.51-2.19c-0.36-1.57,0.62-3.14,2.19-3.51
			c1.57-0.36,3.14,0.62,3.51,2.19C273.31,96.88,272.33,98.45,270.76,98.81z"/>
		<path class="st12" d="M280.74,74.87c0.28,1.22-0.48,2.43-1.7,2.71c-1.22,0.28-2.43-0.48-2.71-1.7c-0.28-1.22,0.48-2.43,1.7-2.71
			C279.24,72.9,280.46,73.65,280.74,74.87z"/>
		<path class="st12" d="M293.02,86.34c-1.62,0.37-3.23-0.64-3.61-2.25c-0.37-1.62,0.64-3.23,2.25-3.61
			c1.62-0.37,3.23,0.64,3.61,2.25C295.65,84.35,294.64,85.97,293.02,86.34z"/>
		<path class="st12" d="M298.55,104.8c-1.66,0.38-3.32-0.65-3.71-2.32c-0.38-1.66,0.65-3.32,2.32-3.71
			c1.66-0.38,3.32,0.65,3.71,2.32C301.25,102.75,300.21,104.41,298.55,104.8z"/>
		<path class="st12" d="M279.88,104.19c-1.57,0.36-2.55,1.93-2.19,3.51c0.36,1.57,1.93,2.55,3.51,2.19
			c1.57-0.36,2.55-1.93,2.19-3.51C283.03,104.81,281.46,103.83,279.88,104.19z"/>
		<path class="st17" d="M280.34,95.32"/>
	</g>
	<g>
		<g>
			<path class="st2" d="M182.97,343.95c0.27,0.56-0.1,1.3-0.83,1.65l-9.8,4.7c-0.73,0.35-1.53,0.17-1.8-0.39
				c-0.27-0.56,0.1-1.3,0.83-1.65l9.8-4.7C181.89,343.21,182.7,343.39,182.97,343.95z"/>
		</g>
		<g>
			<path class="st2" d="M171.97,336.93c0.11,0.23,0.14,0.49,0.08,0.75l-1.49,6.22c-0.15,0.61-0.76,0.98-1.36,0.84
				c-0.61-0.14-0.98-0.76-0.84-1.36l1.49-6.23c0.15-0.61,0.76-0.98,1.36-0.84C171.55,336.4,171.82,336.63,171.97,336.93z"/>
		</g>
		<g>
			<path class="st2" d="M165.51,347.17c0.13,0.28,0.15,0.61,0.03,0.92c-0.24,0.58-0.9,0.85-1.48,0.62l-7.17-2.94
				c-0.58-0.24-0.85-0.9-0.62-1.48c0.24-0.58,0.9-0.85,1.48-0.62l7.17,2.94C165.19,346.72,165.39,346.92,165.51,347.17z"/>
		</g>
		<g>
			<path class="st2" d="M168.71,352.31c0.11,0.24,0.15,0.51,0.07,0.79l-1.73,6.33c-0.16,0.6-0.79,0.96-1.39,0.79
				c-0.6-0.16-0.96-0.79-0.79-1.39l1.73-6.33c0.16-0.6,0.79-0.96,1.39-0.79C168.32,351.8,168.57,352.03,168.71,352.31z"/>
		</g>
		<g>
			<path class="st2" d="M180.59,364.25c0.24,0.5,0.08,1.12-0.4,1.44c-0.52,0.34-1.22,0.19-1.56-0.33l-7.77-11.96
				c-0.34-0.52-0.19-1.22,0.33-1.57c0.52-0.34,1.22-0.19,1.56,0.33l7.77,11.96C180.54,364.16,180.57,364.2,180.59,364.25z"/>
		</g>
		<path class="st6" d="M167.4,343.6c2.68-1.28,5.89-0.15,7.17,2.52c1.28,2.68,0.15,5.89-2.52,7.17c-2.68,1.28-5.89,0.15-7.17-2.52
			C163.59,348.09,164.72,344.88,167.4,343.6z"/>
		<path class="st3" d="M168.19,345.25c1.76-0.85,3.88-0.1,4.72,1.66c0.85,1.76,0.1,3.88-1.66,4.72c-1.76,0.85-3.88,0.1-4.72-1.66
			C165.68,348.21,166.43,346.1,168.19,345.25z"/>
		<path class="st12" d="M182.64,340.87c1.46-0.7,3.2-0.08,3.9,1.37c0.7,1.46,0.08,3.2-1.37,3.9c-1.46,0.7-3.2,0.08-3.9-1.37
			C180.57,343.31,181.18,341.56,182.64,340.87z"/>
		<path class="st12" d="M178.13,366.41c-0.54-1.13-0.06-2.48,1.06-3.02c1.13-0.54,2.48-0.06,3.02,1.06
			c0.54,1.13,0.06,2.48-1.06,3.02C180.02,368.01,178.67,367.53,178.13,366.41z"/>
		<path class="st12" d="M163.64,357.9c1.5-0.72,3.29-0.09,4.01,1.41c0.72,1.5,0.09,3.29-1.41,4.01c-1.5,0.72-3.29,0.09-4.01-1.41
			C161.51,360.41,162.14,358.61,163.64,357.9z"/>
		<path class="st12" d="M154.21,341.09c1.54-0.74,3.39-0.09,4.12,1.45c0.74,1.54,0.09,3.39-1.45,4.12
			c-1.54,0.74-3.39,0.09-4.12-1.45C152.03,343.68,152.68,341.83,154.21,341.09z"/>
		<path class="st12" d="M172.56,337.61c1.46-0.7,2.07-2.44,1.37-3.9c-0.7-1.46-2.44-2.07-3.9-1.37c-1.46,0.7-2.07,2.44-1.37,3.9
			C169.36,337.69,171.11,338.3,172.56,337.61z"/>
		<path class="st17" d="M174.06,346.37"/>
	</g>
	<g>
		<g>
			<path class="st2" d="M381.7,262.06c0.51,0.35,0.56,1.18,0.11,1.84l-6.15,8.96c-0.46,0.66-1.24,0.92-1.76,0.56
				c-0.52-0.35-0.56-1.18-0.11-1.84l6.15-8.96C380.39,261.96,381.18,261.71,381.7,262.06z"/>
		</g>
		<g>
			<path class="st2" d="M368.66,261.46c0.21,0.14,0.37,0.35,0.44,0.61l1.81,6.14c0.18,0.6-0.17,1.23-0.77,1.41
				c-0.6,0.18-1.23-0.17-1.41-0.76l-1.81-6.14c-0.18-0.6,0.17-1.23,0.76-1.41C368.04,261.21,368.39,261.28,368.66,261.46z"/>
		</g>
		<g>
			<path class="st2" d="M368.16,273.56c0.25,0.17,0.44,0.45,0.48,0.78c0.08,0.62-0.35,1.19-0.97,1.27l-7.68,1.02
				c-0.62,0.08-1.19-0.35-1.27-0.97c-0.08-0.62,0.35-1.19,0.97-1.27l7.68-1.02C367.66,273.33,367.94,273.41,368.16,273.56z"/>
		</g>
		<g>
			<path class="st2" d="M373.51,276.42c0.22,0.15,0.38,0.37,0.45,0.65l1.66,6.35c0.16,0.6-0.2,1.22-0.81,1.38
				c-0.6,0.16-1.22-0.2-1.38-0.81l-1.66-6.35c-0.16-0.6,0.2-1.22,0.81-1.38C372.91,276.17,373.25,276.24,373.51,276.42z"/>
		</g>
		<g>
			<path class="st2" d="M389.75,280.84c0.46,0.32,0.63,0.93,0.37,1.45c-0.28,0.56-0.97,0.78-1.52,0.49l-12.69-6.49
				c-0.56-0.28-0.78-0.97-0.49-1.52c0.28-0.56,0.97-0.78,1.52-0.49l12.69,6.49C389.67,280.79,389.71,280.82,389.75,280.84z"/>
		</g>
		<path class="st6" d="M368.02,269.52c1.68-2.45,5.03-3.07,7.47-1.39c2.45,1.68,3.07,5.03,1.39,7.47c-1.68,2.45-5.03,3.07-7.47,1.39
			C366.96,275.32,366.34,271.97,368.02,269.52z"/>
		<path class="st3" d="M369.53,270.56c1.11-1.61,3.31-2.02,4.92-0.91c1.61,1.11,2.02,3.31,0.91,4.92c-1.11,1.61-3.31,2.02-4.92,0.91
			C368.84,274.38,368.43,272.17,369.53,270.56z"/>
		<path class="st12" d="M379.87,259.55c0.91-1.33,2.73-1.67,4.07-0.76c1.33,0.91,1.67,2.73,0.76,4.07
			c-0.91,1.33-2.73,1.67-4.07,0.76C379.3,262.7,378.96,260.88,379.87,259.55z"/>
		<path class="st12" d="M388.7,283.94c-1.03-0.71-1.29-2.12-0.58-3.15c0.71-1.03,2.12-1.29,3.15-0.58c1.03,0.71,1.29,2.12,0.58,3.15
			S389.73,284.65,388.7,283.94z"/>
		<path class="st12" d="M371.9,283.79c0.94-1.37,2.81-1.72,4.18-0.78c1.37,0.94,1.72,2.81,0.78,4.18c-0.94,1.37-2.81,1.72-4.18,0.78
			C371.3,287.03,370.96,285.16,371.9,283.79z"/>
		<path class="st12" d="M355.35,273.93c0.97-1.41,2.89-1.76,4.3-0.8c1.41,0.97,1.76,2.89,0.8,4.3c-0.97,1.41-2.89,1.76-4.3,0.8
			C354.74,277.26,354.38,275.33,355.35,273.93z"/>
		<path class="st12" d="M369.51,261.75c0.91-1.33,0.58-3.15-0.76-4.07c-1.33-0.91-3.15-0.58-4.07,0.76
			c-0.91,1.33-0.58,3.15,0.76,4.07C366.78,263.42,368.6,263.08,369.51,261.75z"/>
		<path class="st17" d="M375.17,268.6"/>
	</g>
	<g>
		<path class="st12" d="M393.15,141.47l10.62,32.79c0.86,2.66-0.6,5.51-3.25,6.37l-25.95,8.41c-2.49,0.81-5.16-0.56-5.96-3.04
			l-10.72-33.08c-0.66-2.05,0.46-4.25,2.51-4.91l27.86-9.02C390.29,138.31,392.49,139.43,393.15,141.47z"/>
		<g>
			<path class="st12" d="M393.15,141.47l10.62,32.79c0.86,2.66-0.6,5.51-3.25,6.37l-25.95,8.41c-2.49,0.81-5.16-0.56-5.96-3.04
				l-1.74-5.38c2.15-2.76,4.12-5.67,5.89-8.68c3.57-6.12,6.33-12.71,8.16-19.55c0.92-3.42,1.61-6.9,2.06-10.41
				c0.02-0.16,0.06-0.65,0.12-1.33l5.16-1.67C390.29,138.31,392.49,139.43,393.15,141.47z"/>
		</g>
		<path class="st3" d="M394.92,170.8L374,177.58c-1.72,0.56-3.57-0.39-4.13-2.11l-3.37-10.41c-0.56-1.72,0.39-3.57,2.11-4.13
			l20.92-6.78c1.72-0.56,3.57,0.39,4.13,2.11l3.37,10.41C397.59,168.39,396.64,170.24,394.92,170.8z"/>
		<g>
			<path class="st6" d="M386.26,131.88l2.27,7l-28.47,9.22l-2.27-7c-0.41-1.27,0.29-2.65,1.55-3.06l23.87-7.73
				C384.48,129.9,385.84,130.6,386.26,131.88z"/>
			<g>
				<path class="st6" d="M386.26,131.88l2.27,7l-28.47,9.22l-0.43-1.32c6.92-3.69,13.13-8.72,18.18-14.72l5.4-1.75
					C384.48,129.9,385.84,130.6,386.26,131.88z"/>
			</g>
		</g>
	</g>
	<g>
		<path class="st6" d="M434.8,304.63l-7.68,45.5c-0.62,3.69-3.36,6.3-6.11,5.83l-26.9-4.54c-2.58-0.43-4.2-3.59-3.61-7.04
			l7.74-45.91c0.48-2.84,2.59-4.86,4.71-4.5l28.87,4.87C433.95,299.2,435.28,301.79,434.8,304.63z"/>
		<g>
			<path class="st6" d="M434.8,304.63l-7.68,45.5c-0.62,3.69-3.36,6.3-6.11,5.83l-26.9-4.54c-2.58-0.43-4.2-3.59-3.61-7.04
				l1.26-7.47c3.3-2.11,6.51-4.5,9.6-7.12c6.26-5.35,12.06-11.73,17.18-18.93c2.56-3.6,4.96-7.4,7.16-11.38
				c0.1-0.19,0.39-0.75,0.79-1.54l5.34,0.9C433.95,299.2,435.28,301.79,434.8,304.63z"/>
		</g>
		<path class="st3" d="M428.14,335.58l-33.38-5.63c-0.31-0.05-0.52-0.35-0.47-0.66l3.04-18.04c0.05-0.31,0.35-0.52,0.66-0.47
			l33.38,5.63c0.31,0.05,0.52,0.35,0.47,0.66l-3.04,18.04C428.75,335.42,428.45,335.63,428.14,335.58z"/>
		<g>
			<path class="st12" d="M432.83,294.7l-0.71,4.2l-29.51-4.98l0.71-4.2c0.13-0.76,1.31-1.2,2.62-0.98l24.74,4.17
				C431.99,293.13,432.95,293.93,432.83,294.7z"/>
			<g>
				<path class="st12" d="M432.83,294.7l-0.71,4.2l-29.51-4.98l0.13-0.79c7.75,0.5,15.38,0.1,22.33-1.16l5.6,0.94
					C431.99,293.13,432.95,293.93,432.83,294.7z"/>
			</g>
		</g>
	</g>
	<g>
		<path class="st8" d="M160.44,392.63c3.17,14.78-50.38,26.26-53.54,11.47c-0.58-2.7-0.74-5.38-0.53-8
			c0.43-5.08,2.26-9.89,5.21-13.9c2.48-3.4,5.74-6.24,9.61-8.21l-6.83-31.86l-1.73,0.37c-1.76,0.38-3.49-0.75-3.87-2.52
			c-0.38-1.76,0.75-3.49,2.5-3.87l17.32-3.71c1.77-0.38,3.5,0.74,3.88,2.5c0.38,1.77-0.74,3.5-2.51,3.88l-1.71,0.37l6.83,31.86
			c5.66,0.28,11,2.32,15.35,5.7c2.22,1.71,4.18,3.76,5.79,6.09C158.21,385.68,159.66,388.99,160.44,392.63z"/>
		<g>
			<path class="st12" d="M158.57,392.03c2.93,13.69-47.27,24.45-50.21,10.76c-0.54-2.5-0.68-4.99-0.48-7.41
				c0.41-4.71,2.14-9.17,4.91-12.89c2.43-1.65,5.05-2.12,8.13,0.08c1.68,1.18,2.81,2.25,5.03,2.17c2.71-0.09,4.94-2.15,6.73-4.01
				c1.84-1.92,4.34-6.26,7.59-5.79c1.83,0.27,3.11,2.31,5.04,2.6c1.37,0.21,2.66,0.1,3.89-0.23c2.07,1.58,3.91,3.47,5.41,5.63
				C156.49,385.6,157.85,388.66,158.57,392.03z"/>
		</g>
		<path class="st12" d="M126.19,377.52c0.21,0.99-0.43,1.96-1.43,2.18c-1,0.21-1.98-0.41-2.19-1.4c-0.21-0.99,0.43-1.96,1.43-2.18
			C124.99,375.91,125.97,376.53,126.19,377.52z"/>
		<path class="st12" d="M132.38,371.52c0.21,0.99-0.43,1.96-1.43,2.18c-1,0.21-1.98-0.41-2.19-1.4c-0.21-0.99,0.43-1.96,1.43-2.18
			S132.17,370.53,132.38,371.52z"/>
		<path class="st12" d="M130.73,358.18c0.51,2.38-1.03,4.73-3.44,5.24c-2.41,0.52-4.77-0.99-5.28-3.37
			c-0.51-2.38,1.03-4.73,3.44-5.24C127.86,354.29,130.22,355.8,130.73,358.18z"/>
		
			<ellipse transform="matrix(0.9778 -0.2097 0.2097 0.9778 -80.2153 33.108)" class="st12" cx="115.99" cy="394.76" rx="4.04" ry="3.99"/>
		<path class="st12" d="M144.45,396.83c0.46,2.15-0.93,4.28-3.11,4.75c-2.18,0.47-4.32-0.9-4.78-3.05
			c-0.46-2.15,0.93-4.28,3.11-4.75C141.84,393.3,143.99,394.67,144.45,396.83z"/>
		
			<ellipse transform="matrix(0.9778 -0.2097 0.2097 0.9778 -78.7409 40.3073)" class="st12" cx="150.68" cy="391.41" rx="4.04" ry="3.99"/>
		<path class="st12" d="M135.92,385.46c0.24,1.13-0.49,2.25-1.64,2.5s-2.27-0.47-2.52-1.61c-0.24-1.13,0.49-2.25,1.64-2.5
			C134.55,383.61,135.68,384.33,135.92,385.46z"/>
		<path class="st12" d="M128.49,398.1c0.24,1.13-0.49,2.25-1.64,2.5c-1.15,0.25-2.27-0.47-2.52-1.61c-0.24-1.13,0.49-2.25,1.64-2.5
			C127.12,396.25,128.24,396.97,128.49,398.1z"/>
	</g>
	<g>
		<g>
			<g>
				<path class="st5" d="M393.93,403.98c-0.11-2.51-0.52-4.78-1.23-6.83c-0.04-0.03-0.09-0.06-0.13-0.09
					C393.22,399.21,393.61,401.51,393.93,403.98z"/>
			</g>
			<g>
				<path class="st14" d="M393.93,403.98c-0.05-1.27-0.19-2.47-0.4-3.62c-0.06-0.05-0.13-0.09-0.19-0.14
					C393.58,401.43,393.76,402.68,393.93,403.98z"/>
			</g>
		</g>
	</g>
	<g>
		<g>
			<g>
				<path class="st8" d="M327.54,285.23l0.98,0.89c0.58,0.54,0.62,1.44,0.1,2.02c-0.54,0.58-1.43,0.61-2.01,0.08l-1.03-0.93
					c-1.83,1.05-4.17,0.86-5.8-0.63l-17.06-15.62l-1.96-1.8l-11.03-10.11l6.72-7.34l2.85,2.62l11.65,10.66l15.54,14.24
					C328.17,280.85,328.53,283.29,327.54,285.23z"/>
				<g>
					<path class="st6" d="M327.54,285.23l0.98,0.89c0.58,0.54,0.62,1.44,0.1,2.02c-0.54,0.58-1.43,0.61-2.01,0.08l-1.03-0.93
						c-1.83,1.05-4.17,0.86-5.8-0.63l-17.06-15.62c0.76-0.86,1.88-0.71,3.43-1.05c2.01-0.44,3.35-2.95,4.8-4.91l15.54,14.24
						C328.17,280.85,328.53,283.29,327.54,285.23z"/>
				</g>
				<g>
					<path class="st7" d="M327.54,285.23l0.98,0.89c0.58,0.54,0.62,1.44,0.1,2.02c-0.54,0.58-1.43,0.61-2.01,0.08l-1.03-0.93
						c-1.83,1.05-4.17,0.86-5.8-0.63l-19.02-17.42c0.06-0.58,0.13-1.16,0.2-1.73c0.51-4.2-0.44-8.4-1.49-12.48
						c-0.06-0.2-0.11-0.41-0.17-0.62l27.19,24.9C328.17,280.85,328.53,283.29,327.54,285.23z"/>
				</g>
				<g>
					
						<rect x="292.36" y="259.31" transform="matrix(0.6776 -0.7354 0.7354 0.6776 -96.0716 300.828)" class="st2" width="5.44" height="1.37"/>
					
						<rect x="294.72" y="261.48" transform="matrix(0.6776 -0.7354 0.7354 0.6776 -96.909 303.2705)" class="st2" width="5.44" height="1.37"/>
					
						<rect x="297.08" y="263.65" transform="matrix(0.6776 -0.7354 0.7354 0.6776 -97.7477 305.6997)" class="st2" width="5.44" height="1.37"/>
					
						<rect x="299.44" y="265.83" transform="matrix(0.6776 -0.7354 0.7354 0.6776 -98.5851 308.141)" class="st2" width="5.44" height="1.37"/>
					
						<rect x="301.8" y="268" transform="matrix(0.6776 -0.7354 0.7354 0.6776 -99.4237 310.5714)" class="st2" width="5.44" height="1.37"/>
					
						<rect x="304.16" y="270.18" transform="matrix(0.6776 -0.7354 0.7354 0.6776 -100.2623 313.0022)" class="st2" width="5.44" height="1.37"/>
					
						<rect x="306.52" y="272.35" transform="matrix(0.6776 -0.7354 0.7354 0.6776 -101.0997 315.4431)" class="st2" width="5.44" height="1.37"/>
					
						<rect x="308.87" y="274.52" transform="matrix(0.6776 -0.7354 0.7354 0.6776 -101.9378 317.879)" class="st2" width="5.44" height="1.37"/>
					
						<rect x="311.23" y="276.7" transform="matrix(0.6776 -0.7354 0.7354 0.6776 -102.7752 320.3205)" class="st2" width="5.44" height="1.37"/>
					
						<rect x="313.59" y="278.87" transform="matrix(0.6776 -0.7354 0.7354 0.6776 -103.6138 322.7507)" class="st2" width="5.44" height="1.37"/>
					
						<rect x="315.95" y="281.04" transform="matrix(0.6776 -0.7354 0.7354 0.6776 -104.4512 325.1923)" class="st2" width="5.44" height="1.37"/>
					
						<rect x="318.31" y="283.22" transform="matrix(0.6776 -0.7354 0.7354 0.6776 -105.2899 327.6224)" class="st2" width="5.44" height="1.37"/>
				</g>
				<path class="st18" d="M297.46,248.82c0.51,0.47,0.55,1.26,0.07,1.78l-8.9,9.72c-0.48,0.52-1.27,0.55-1.78,0.09
					c-0.52-0.48-0.55-1.27-0.08-1.79l8.9-9.72C296.14,248.38,296.94,248.34,297.46,248.82z"/>
				<path class="st6" d="M292.93,247.26l2.3,2.11l-8.04,8.79l-2.3-2.11c-2.42-2.22-2.59-5.99-0.37-8.41
					c1.11-1.22,2.61-1.86,4.13-1.93C290.18,245.63,291.73,246.15,292.93,247.26z"/>
			</g>
			<g>
				<path class="st6" d="M328.86,289.88c-0.16-0.32-0.62-0.29-0.74,0.05c-0.98,2.77-3.49,9.58,0.05,10.1
					C334.1,300.91,330.16,292.45,328.86,289.88z"/>
			</g>
		</g>
		<g>
			<path class="st8" d="M357.12,307.41c0.04,0.51,0,1.03-0.13,1.52c-0.53,2.08-2.56,3.67-4.71,3.69
				c0.01,11.67,0.01,23.34,0.02,35.01c0,4.18-0.18,8.84-3.11,11.82c-2.97,3.02-7.69,3.23-11.92,3.25
				c-5.93,0.03-11.86,0.05-17.79,0.08c-4.23,0.02-8.89-0.12-12.03-2.96c-3.55-3.22-3.78-8.62-3.76-13.4
				c0.05-11.25,0.1-22.5,0.15-33.75c-2.31,0.07-4.55-1.68-5.04-3.95c-0.48-2.26,0.84-4.78,2.98-5.66c1.22-0.5,2.58-0.5,3.89-0.49
				c14.68,0.08,29.35,0.05,44.04,0.02c1.69,0,3.47,0.01,4.94,0.84C356.07,304.23,356.99,305.8,357.12,307.41z"/>
			<g>
				<path class="st12" d="M350.11,328.24v22.37c0,5.65-4.59,10.25-10.25,10.25h-23.65c-5.66,0-10.25-4.59-10.25-10.25v-19.47
					c1.79,0.9,4.27,0.55,6.1-0.78c3.14-2.27,6.26-3.84,9.18-0.62c1.03,1.14,1.69,2.1,3.32,2.39c1.97,0.35,3.92-0.81,5.5-1.89
					c1.64-1.12,4.13-3.92,6.41-3.06c1.28,0.48,1.9,2.19,3.26,2.71C343.33,331.27,346.75,329.19,350.11,328.24z"/>
			</g>
			<circle class="st12" cx="312.72" cy="323.62" r="3"/>
			<circle class="st12" cx="324.47" cy="326.87" r="1.38"/>
			<circle class="st12" cx="324.47" cy="313.49" r="3.31"/>
			<path class="st12" d="M322.06,320.48c0,0.91-0.74,1.65-1.65,1.65s-1.65-0.74-1.65-1.65c0-0.91,0.74-1.65,1.65-1.65
				S322.06,319.57,322.06,320.48z"/>
			<circle class="st12" cx="313.78" cy="340.94" r="3"/>
			<circle class="st12" cx="328.85" cy="351.61" r="3"/>
			<circle class="st12" cx="341.47" cy="340.94" r="3"/>
			<circle class="st12" cx="318.33" cy="354.28" r="3"/>
			<circle class="st12" cx="328.04" cy="340.44" r="1.58"/>
			<path class="st12" d="M342,355.22c0,0.87-0.71,1.58-1.58,1.58s-1.58-0.71-1.58-1.58s0.71-1.58,1.58-1.58S342,354.35,342,355.22z"
				/>
			<path class="st12" d="M312.36,351.28c0,0.87-0.71,1.58-1.58,1.58s-1.58-0.71-1.58-1.58c0-0.87,0.71-1.58,1.58-1.58
				S312.36,350.4,312.36,351.28z"/>
			<circle class="st12" cx="321.16" cy="345.19" r="1.58"/>
			<circle class="st12" cx="342.53" cy="326.87" r="1.38"/>
			<circle class="st12" cx="342.53" cy="313.49" r="3.31"/>
			<path class="st12" d="M340.12,320.48c0,0.91-0.74,1.65-1.65,1.65s-1.65-0.74-1.65-1.65c0-0.91,0.74-1.65,1.65-1.65
				S340.12,319.57,340.12,320.48z"/>
			<g>
				<path class="st2" d="M347.51,317.62h-8.73c-0.53,0-0.96-0.43-0.96-0.96v-0.25c0-0.53,0.43-0.96,0.96-0.96h8.73
					c0.53,0,0.96,0.43,0.96,0.96v0.25C348.47,317.19,348.04,317.62,347.51,317.62z"/>
				<path class="st2" d="M347.51,321.56h-8.73c-0.53,0-0.96-0.43-0.96-0.96v-0.25c0-0.53,0.43-0.96,0.96-0.96h8.73
					c0.53,0,0.96,0.43,0.96,0.96v0.25C348.47,321.13,348.04,321.56,347.51,321.56z"/>
				<path class="st2" d="M347.51,325.51h-8.73c-0.53,0-0.96-0.43-0.96-0.96v-0.25c0-0.53,0.43-0.96,0.96-0.96h8.73
					c0.53,0,0.96,0.43,0.96,0.96v0.25C348.47,325.08,348.04,325.51,347.51,325.51z"/>
				<path class="st2" d="M347.51,329.45h-8.73c-0.53,0-0.96-0.43-0.96-0.96v-0.25c0-0.53,0.43-0.96,0.96-0.96h8.73
					c0.53,0,0.96,0.43,0.96,0.96v0.25C348.47,329.02,348.04,329.45,347.51,329.45z"/>
				<path class="st2" d="M347.51,333.4h-8.73c-0.53,0-0.96-0.43-0.96-0.96v-0.25c0-0.53,0.43-0.96,0.96-0.96h8.73
					c0.53,0,0.96,0.43,0.96,0.96v0.25C348.47,332.97,348.04,333.4,347.51,333.4z"/>
				<path class="st2" d="M347.51,337.34h-8.73c-0.53,0-0.96-0.43-0.96-0.96v-0.25c0-0.53,0.43-0.96,0.96-0.96h8.73
					c0.53,0,0.96,0.43,0.96,0.96v0.25C348.47,336.91,348.04,337.34,347.51,337.34z"/>
				<path class="st2" d="M347.51,341.29h-8.73c-0.53,0-0.96-0.43-0.96-0.96v-0.25c0-0.53,0.43-0.96,0.96-0.96h8.73
					c0.53,0,0.96,0.43,0.96,0.96v0.25C348.47,340.86,348.04,341.29,347.51,341.29z"/>
				<path class="st2" d="M347.51,345.23h-8.73c-0.53,0-0.96-0.43-0.96-0.96v-0.25c0-0.53,0.43-0.96,0.96-0.96h8.73
					c0.53,0,0.96,0.43,0.96,0.96v0.25C348.47,344.8,348.04,345.23,347.51,345.23z"/>
				<path class="st2" d="M347.51,349.18h-8.73c-0.53,0-0.96-0.43-0.96-0.96v-0.25c0-0.53,0.43-0.96,0.96-0.96h8.73
					c0.53,0,0.96,0.43,0.96,0.96v0.25C348.47,348.75,348.04,349.18,347.51,349.18z"/>
				<path class="st2" d="M347.51,353.12h-8.73c-0.53,0-0.96-0.43-0.96-0.96v-0.25c0-0.53,0.43-0.96,0.96-0.96h8.73
					c0.53,0,0.96,0.43,0.96,0.96v0.25C348.47,352.69,348.04,353.12,347.51,353.12z"/>
			</g>
			<g>
				<path class="st7" d="M352.29,312.81v38.64c0,6.21-5.04,11.26-11.26,11.26h-25.99c-6.22,0-11.26-5.05-11.26-11.26v-7.73
					c3.14-2.02,7.58-4.76,11.85-7.37c8.23-5.02,13.32-13.91,13.5-23.55l0,0L352.29,312.81z"/>
			</g>
		</g>
	</g>
</g>
<g id="DESIGNED_BY_FREEPIK">
</g>
</svg>
